<svg width="400" height="560" viewBox="0 0 400 560" fill="none" xmlns="http://www.w3.org/2000/svg">
<g clip-path="url(#clip0_61_11732)">
<rect x="53" y="98" width="6" height="244" transform="rotate(180 53 98)" fill="#4E4130"/>
<rect x="352" y="98" width="6" height="244" transform="rotate(180 352 98)" fill="#4E4130"/>
<rect x="53" y="98" width="292" height="6" fill="#4E4130"/>
<rect width="293" height="238" transform="matrix(1 -8.74228e-08 -8.74228e-08 -1 53 98)" fill="#B77D4A"/>
<rect x="340" y="98" width="244" height="6" transform="rotate(-90 340 98)" fill="#835744"/>
<g filter="url(#filter0_d_61_11732)">
<path d="M125.5 43H124V41.5V40V38.5V37V35.5V34V32.5V31V29.5V28V26.5H125.5H127H128.5H130H131.5H133H134.5H136V28V29.5H134.5H133H131.5H130H128.5H127V31V32.5H128.5H130H131.5H133H134.5V34V35.5H133H131.5H130H128.5H127V37V38.5V40V41.5V43H125.5ZM148 43H146.5H145H143.5H142H140.5H139H137.5V41.5V40V38.5V37V35.5V34V32.5V31V29.5V28V26.5H139H140.5V28V29.5V31V32.5V34V35.5V37V38.5V40H142H143.5H145H146.5H148H149.5V41.5V43H148ZM157 43H155.5V41.5V40V38.5V37H154V35.5H152.5V34H151V32.5V31V29.5V28V26.5H152.5H154V28V29.5V31V32.5H155.5V34H157H158.5V32.5H160V31V29.5V28V26.5H161.5H163V28V29.5V31V32.5V34H161.5V35.5H160V37H158.5V38.5V40V41.5V43H157ZM178 43H176.5V41.5V40V38.5V37V35.5V34V32.5V31V29.5H175H173.5H172V28V26.5H173.5H175H176.5H178H179.5H181H182.5H184V28V29.5H182.5H181H179.5V31V32.5V34V35.5V37V38.5V40V41.5V43H178ZM196 43H194.5V41.5V40V38.5V37V35.5H193H191.5H190H188.5V37V38.5V40V41.5V43H187H185.5V41.5V40V38.5V37V35.5V34V32.5V31V29.5V28V26.5H187H188.5V28V29.5V31V32.5H190H191.5H193H194.5V31V29.5V28V26.5H196H197.5V28V29.5V31V32.5V34V35.5V37V38.5V40V41.5V43H196ZM209.5 43H208V41.5H206.5V40H205V38.5H203.5V37H202V38.5V40V41.5V43H200.5H199V41.5V40V38.5V37V35.5V34V32.5V31V29.5V28V26.5H200.5H202H203.5H205H206.5H208H209.5V28H211V29.5V31V32.5V34H209.5V35.5H208H206.5V37H208V38.5H209.5V40H211V41.5V43H209.5ZM206.5 32.5H208V31V29.5H206.5H205H203.5H202V31V32.5H203.5H205H206.5ZM221.5 43H220H218.5H217H215.5H214V41.5H212.5V40V38.5V37V35.5V34V32.5V31V29.5V28H214V26.5H215.5H217H218.5H220H221.5H223V28H224.5V29.5V31V32.5V34V35.5V37V38.5V40V41.5H223V43H221.5ZM220 40H221.5V38.5V37V35.5V34V32.5V31V29.5H220H218.5H217H215.5V31V32.5V34V35.5V37V38.5V40H217H218.5H220ZM235 43H233.5H232H230.5H229H227.5V41.5H226V40V38.5V37V35.5V34V32.5V31V29.5V28V26.5H227.5H229V28V29.5V31V32.5V34V35.5V37V38.5V40H230.5H232H233.5H235V38.5V37V35.5V34V32.5V31V29.5V28V26.5H236.5H238V28V29.5V31V32.5V34V35.5V37V38.5V40V41.5H236.5V43H235ZM248.5 43H247H245.5H244H242.5H241V41.5H239.5V40V38.5V37V35.5V34V32.5V31V29.5V28H241V26.5H242.5H244H245.5H247H248.5H250V28H251.5V29.5V31H250H248.5V29.5H247H245.5H244H242.5V31V32.5V34V35.5V37V38.5V40H244H245.5H247H248.5V38.5V37H247H245.5V35.5V34H247H248.5H250H251.5V35.5V37V38.5V40V41.5H250V43H248.5ZM263.5 43H262V41.5V40V38.5V37V35.5H260.5H259H257.5H256V37V38.5V40V41.5V43H254.5H253V41.5V40V38.5V37V35.5V34V32.5V31V29.5V28V26.5H254.5H256V28V29.5V31V32.5H257.5H259H260.5H262V31V29.5V28V26.5H263.5H265V28V29.5V31V32.5V34V35.5V37V38.5V40V41.5V43H263.5ZM93.25 68H91.75V66.5V65V63.5V62V60.5V59V57.5V56V54.5H90.25H88.75H87.25V53V51.5H88.75H90.25H91.75H93.25H94.75H96.25H97.75H99.25V53V54.5H97.75H96.25H94.75V56V57.5V59V60.5V62V63.5V65V66.5V68H93.25ZM111.25 68H109.75V66.5V65V63.5V62V60.5H108.25H106.75H105.25H103.75V62V63.5V65V66.5V68H102.25H100.75V66.5V65V63.5V62V60.5V59V57.5V56V54.5V53V51.5H102.25H103.75V53V54.5V56V57.5H105.25H106.75H108.25H109.75V56V54.5V53V51.5H111.25H112.75V53V54.5V56V57.5V59V60.5V62V63.5V65V66.5V68H111.25ZM124.75 68H123.25H121.75H120.25H118.75H117.25H115.75H114.25V66.5V65V63.5V62V60.5V59V57.5V56V54.5V53V51.5H115.75H117.25H118.75H120.25H121.75H123.25H124.75H126.25V53V54.5H124.75H123.25H121.75H120.25H118.75H117.25V56V57.5H118.75H120.25H121.75H123.25H124.75V59V60.5H123.25H121.75H120.25H118.75H117.25V62V63.5V65H118.75H120.25H121.75H123.25H124.75H126.25V66.5V68H124.75ZM136.75 68H135.25V66.5V65V63.5V62V60.5V59V57.5V56V54.5V53V51.5H136.75H138.25H139.75H141.25H142.75H144.25H145.75V53H147.25V54.5V56V57.5V59H145.75V60.5H144.25H142.75H141.25H139.75H138.25V62V63.5V65V66.5V68H136.75ZM142.75 57.5H144.25V56V54.5H142.75H141.25H139.75H138.25V56V57.5H139.75H141.25H142.75ZM153.25 68H151.75H150.25H148.75V66.5V65H150.25V63.5V62V60.5V59V57.5V56V54.5H148.75V53V51.5H150.25H151.75H153.25H154.75V53V54.5H153.25V56V57.5V59V60.5V62V63.5V65H154.75V66.5V68H153.25ZM157.75 68H156.25V66.5V65V63.5V62V60.5V59V57.5V56V54.5V53V51.5H157.75H159.25H160.75H162.25H163.75H165.25H166.75V53H168.25V54.5V56V57.5V59H166.75V60.5H165.25H163.75H162.25H160.75H159.25V62V63.5V65V66.5V68H157.75ZM163.75 57.5H165.25V56V54.5H163.75H162.25H160.75H159.25V56V57.5H160.75H162.25H163.75ZM180.25 68H178.75H177.25H175.75H174.25H172.75H171.25H169.75V66.5V65V63.5V62V60.5V59V57.5V56V54.5V53V51.5H171.25H172.75H174.25H175.75H177.25H178.75H180.25H181.75V53V54.5H180.25H178.75H177.25H175.75H174.25H172.75V56V57.5H174.25H175.75H177.25H178.75H180.25V59V60.5H178.75H177.25H175.75H174.25H172.75V62V63.5V65H174.25H175.75H177.25H178.75H180.25H181.75V66.5V68H180.25ZM192.25 68H190.75H189.25H187.75H186.25H184.75V66.5H183.25V65V63.5H184.75H186.25V65H187.75H189.25H190.75H192.25V63.5V62H190.75V60.5H189.25H187.75H186.25H184.75V59H183.25V57.5V56V54.5V53H184.75V51.5H186.25H187.75H189.25H190.75H192.25H193.75V53H195.25V54.5V56H193.75H192.25V54.5H190.75H189.25H187.75H186.25V56V57.5H187.75H189.25H190.75H192.25V59H193.75V60.5H195.25V62V63.5V65V66.5H193.75V68H192.25ZM210.25 68H208.75V66.5V65V63.5V62V60.5V59V57.5V56V54.5H207.25H205.75H204.25V53V51.5H205.75H207.25H208.75H210.25H211.75H213.25H214.75H216.25V53V54.5H214.75H213.25H211.75V56V57.5V59V60.5V62V63.5V65V66.5V68H210.25ZM226.75 68H225.25H223.75H222.25H220.75H219.25V66.5H217.75V65V63.5V62V60.5V59V57.5V56V54.5V53H219.25V51.5H220.75H222.25H223.75H225.25H226.75H228.25V53H229.75V54.5V56V57.5V59V60.5V62V63.5V65V66.5H228.25V68H226.75ZM225.25 65H226.75V63.5V62V60.5V59V57.5V56V54.5H225.25H223.75H222.25H220.75V56V57.5V59V60.5V62V63.5V65H222.25H223.75H225.25ZM247.75 68H246.25H244.75H243.25H241.75H240.25V66.5H238.75V65V63.5H240.25H241.75V65H243.25H244.75H246.25H247.75V63.5V62H246.25V60.5H244.75H243.25H241.75H240.25V59H238.75V57.5V56V54.5V53H240.25V51.5H241.75H243.25H244.75H246.25H247.75H249.25V53H250.75V54.5V56H249.25H247.75V54.5H246.25H244.75H243.25H241.75V56V57.5H243.25H244.75H246.25H247.75V59H249.25V60.5H250.75V62V63.5V65V66.5H249.25V68H247.75ZM261.25 68H259.75H258.25H256.75H255.25H253.75V66.5H252.25V65V63.5V62V60.5V59V57.5V56V54.5V53H253.75V51.5H255.25H256.75H258.25H259.75H261.25H262.75V53H264.25V54.5V56H262.75H261.25V54.5H259.75H258.25H256.75H255.25V56V57.5V59V60.5V62V63.5V65H256.75H258.25H259.75H261.25V63.5H262.75H264.25V65V66.5H262.75V68H261.25ZM274.75 68H273.25H271.75H270.25H268.75H267.25V66.5H265.75V65V63.5V62V60.5V59V57.5V56V54.5V53H267.25V51.5H268.75H270.25H271.75H273.25H274.75H276.25V53H277.75V54.5V56V57.5V59V60.5V62V63.5V65V66.5H276.25V68H274.75ZM273.25 65H274.75V63.5V62V60.5V59V57.5V56V54.5H273.25H271.75H270.25H268.75V56V57.5V59V60.5V62V63.5V65H270.25H271.75H273.25ZM289.75 68H288.25V66.5H286.75V65H285.25V63.5H283.75V62H282.25V63.5V65V66.5V68H280.75H279.25V66.5V65V63.5V62V60.5V59V57.5V56V54.5V53V51.5H280.75H282.25H283.75H285.25H286.75H288.25H289.75V53H291.25V54.5V56V57.5V59H289.75V60.5H288.25H286.75V62H288.25V63.5H289.75V65H291.25V66.5V68H289.75ZM286.75 57.5H288.25V56V54.5H286.75H285.25H283.75H282.25V56V57.5H283.75H285.25H286.75ZM303.25 68H301.75H300.25H298.75H297.25H295.75H294.25H292.75V66.5V65V63.5V62V60.5V59V57.5V56V54.5V53V51.5H294.25H295.75H297.25H298.75H300.25H301.75H303.25H304.75V53V54.5H303.25H301.75H300.25H298.75H297.25H295.75V56V57.5H297.25H298.75H300.25H301.75H303.25V59V60.5H301.75H300.25H298.75H297.25H295.75V62V63.5V65H297.25H298.75H300.25H301.75H303.25H304.75V66.5V68H303.25ZM307.75 68H306.25V66.5V65H307.75H309.25V66.5V68H307.75ZM307.75 63.5H306.25V62V60.5V59V57.5V56V54.5V53V51.5H307.75H309.25V53V54.5V56V57.5V59V60.5V62V63.5H307.75Z" fill="white"/>
</g>
<g clip-path="url(#clip1_61_11732)">
<path d="M-309.836 548.449H-302.712V560.58H-295.592V566.646H-288.468V572.712H-274.23V576.818H10.6142V572.712H17.7334V566.646H10.6142V560.58H3.49493V554.515H-3.62926V542.378H-10.7485V499.908H-17.8727V505.979H-24.9919V512.04H-67.7173V505.979H-74.8415V499.908H-81.9607V493.843H-89.0799V499.908H-96.2041V512.04H-103.323V518.111H-110.443V524.181H-117.567V530.242H-131.81V536.313H-188.774V530.242H-203.017V524.181H-210.137V518.111H-217.256V512.04H-231.499V518.111H-238.624V524.181H-281.349V518.111H-288.468V512.04H-295.592V499.908H-302.712V475.641H-309.836V493.843H-316.955V530.242H-309.836V548.449Z" fill="#B2E2F1"/>
<path d="M31.9759 512.047V505.981V499.91H24.8567V493.845H17.7325V487.779H10.6133V481.713H3.49404H-3.63013H-10.7494V475.643V469.577V463.511H-17.8735V457.44V451.375V445.309H-24.9927V439.243H-32.112V433.173H-39.2312V427.107H-46.3554V421.041H-53.4746H-60.5988H-67.718H-74.8422H-81.9614H-89.0806H-96.1999H-103.324V427.107H-110.443V421.041V414.971H-117.567V408.905H-124.687H-131.811V402.839H-138.93V396.773H-146.054H-153.169H-160.288H-167.412H-174.531H-181.655V402.839H-188.775H-195.899V408.905H-203.018V414.971H-210.142V421.041H-217.256V427.107H-224.381V433.173V439.243V445.309H-231.5H-238.624H-245.743H-252.867H-259.987H-267.111H-274.23V451.375H-281.349H-288.469V457.44H-295.593V463.511H-302.712V469.577V475.643V481.713V487.779V493.845V499.91H-295.593V505.981V512.047H-288.469V518.112H-281.349V524.183H-274.23H-267.111H-259.987H-252.867H-245.743H-238.624V518.112H-231.5V512.047H-224.381H-217.256V518.112H-210.142V524.183H-203.018V530.249H-195.899H-188.775V536.315H-181.655H-174.531H-167.412H-160.288H-153.169H-146.054H-138.93H-131.811V530.249H-124.687H-117.567V524.183H-110.443V518.112H-103.324V512.047H-96.1999V505.981V499.91H-89.0806V493.845H-81.9614V499.91H-74.8422V505.981H-67.718V512.047H-60.5988H-53.4746H-46.3554H-39.2312H-32.112H-24.9927V505.981H-17.8735V499.91H-10.7494V505.981V512.047V518.112V524.183V530.249V536.315V542.38H-3.63013V548.451V554.517H3.49404V560.582H10.6133V566.648H17.7325V572.714H24.8567V566.648V560.582H31.9759V554.517H39.0952V548.451V542.38V536.315V530.249V524.183V518.112V512.047H31.9759Z" fill="white"/>
<path d="M-80.0428 548.449H-72.9236V560.58H-65.7994V566.646H-58.6801V572.712H-44.4367V576.818H240.402V572.712H247.527V566.646H240.402V560.58H233.283V554.515H226.159V542.378H219.04V499.908H211.92V505.979H204.801V512.04H162.071V505.979H154.952V499.908H147.832V493.843H140.713V499.908H133.589V512.04H126.47V518.111H119.346V524.181H112.226V530.242H97.9828V536.313H41.014V530.242H26.7706V524.181H19.6563V518.111H12.5321V512.04H-1.71133V518.111H-8.83057V524.181H-51.5559V518.111H-58.6801V512.04H-65.7994V499.908H-72.9236V475.641H-80.0428V493.843H-87.167V530.242H-80.0428V548.449Z" fill="#CAE3F3"/>
<path d="M261.769 512.047V505.981V499.91H254.645V493.845H247.526V487.779H240.401V481.713H233.282H226.158H219.039V475.643V469.577V463.511H211.915V457.44V451.375V445.309H204.8V439.243H197.676V433.173H190.557V427.107H183.438V421.041H176.313H169.194H162.07H154.956H147.832H140.712H133.588H126.469V427.107H119.345V421.041V414.971H112.226V408.905H105.101H97.9822V402.839H90.858V396.773H83.7437H76.6196H69.5003H62.3762H55.2569H48.1328V402.839H41.0135H33.8894V408.905H26.7702V414.971H19.6558V421.041H12.5317V427.107H5.41244V433.173V439.243V445.309H-1.71174H-8.83096H-15.9551H-23.0744H-30.1985H-37.3178H-44.437V451.375H-51.5563H-58.6804V457.44H-65.7996V463.511H-72.9238V469.577V475.643V481.713V487.779V493.845V499.91H-65.7996V505.981V512.047H-58.6804V518.112H-51.5563V524.183H-44.437H-37.3178H-30.1985H-23.0744H-15.9551H-8.83096V518.112H-1.71174V512.047H5.41244H12.5317V518.112H19.6558V524.183H26.7702V530.249H33.8894H41.0135V536.315H48.1328H55.2569H62.3762H69.5003H76.6196H83.7437H90.858H97.9822V530.249H105.101H112.226V524.183H119.345V518.112H126.469V512.047H133.588V505.981V499.91H140.712V493.845H147.832V499.91H154.956V505.981H162.07V512.047H169.194H176.313H183.438H190.557H197.676H204.8V505.981H211.915V499.91H219.039V505.981V512.047V518.112V524.183V530.249V536.315V542.38H226.158V548.451V554.517H233.282V560.582H240.401V566.648H247.526V572.714H254.645V566.648V560.582H261.769V554.517H268.888V548.451V542.38V536.315V530.249V524.183V518.112V512.047H261.769Z" fill="white"/>
<path d="M400 576.82V516.683H397.779V523.389H350.557V516.683H342.689V509.983H334.821V503.277H326.954V509.983H319.081V523.389H311.213V530.094H303.34V536.8H295.472V543.505H279.732V550.211H216.774V543.505H201.038V536.8H193.165V530.094H185.298V523.389H169.562V530.094H161.689V536.8H114.472V530.094H106.599V523.389H98.7315V509.983H90.8587V507.161H82.9958V503.277H75.123V543.505H82.9958V563.622H90.8587V576.82H400Z" fill="#CAE3F3"/>
<path d="M400 449.639H397.779V442.934H389.906V436.228H382.038V429.523H374.166V422.817H311.213V429.523H303.34V416.112H295.472V409.411H279.732V402.706H271.859V396H224.647V402.706H208.906V409.411H201.038V416.112H193.165V422.817H185.298V429.523H177.425V449.639H122.34V456.345H106.599V463.05H98.7312V469.756H90.8584V509.984H98.7312V523.39H106.599V530.095H114.472V536.801H161.689V530.095H169.562V523.39H185.298V530.095H193.165V536.801H201.038V543.506H216.774V550.212H279.732V543.506H295.472V536.801H303.34V530.095H311.213V523.39H319.081V509.984H326.954V503.278H334.821V509.984H342.689V516.684H350.557V523.39H397.779V516.684H400V449.639Z" fill="white"/>
</g>
<mask id="path-13-outside-1_61_11732" maskUnits="userSpaceOnUse" x="85" y="460" width="225" height="35" fill="black">
<rect fill="white" x="85" y="460" width="225" height="35"/>
<path d="M86.4375 461.875H92.0625V463H93.1875V466.375H92.0625V467.5H88.6875V472H86.4375V461.875ZM90.9375 463H88.6875V466.375H90.9375V463ZM95.4375 464.125H97.6875V466.375H98.8125V467.5H97.6875V472H95.4375V464.125ZM99.9375 464.125H102.188V466.375H98.8125V465.25H99.9375V464.125ZM108.938 465.25H106.688V467.5H108.938V465.25ZM105.562 464.125H110.062V465.25H111.188V468.625H106.688V470.875H108.938V469.75H111.188V470.875H110.062V472H105.562V470.875H104.438V465.25H105.562V464.125ZM114.562 464.125H119.062V465.25H120.188V466.375H117.938V465.25H115.688V467.5H119.062V468.625H120.188V470.875H119.062V472H114.562V470.875H113.438V469.75H115.688V470.875H117.938V468.625H114.562V467.5H113.438V465.25H114.562V464.125ZM123.562 464.125H128.062V465.25H129.188V466.375H126.938V465.25H124.688V467.5H128.062V468.625H129.188V470.875H128.062V472H123.562V470.875H122.438V469.75H124.688V470.875H126.938V468.625H123.562V467.5H122.438V465.25H123.562V464.125ZM137.062 464.125H141.562V465.25H142.688V466.375H140.438V465.25H138.188V467.5H141.562V468.625H142.688V470.875H141.562V472H137.062V470.875H135.938V469.75H138.188V470.875H140.438V468.625H137.062V467.5H135.938V465.25H137.062V464.125ZM144.938 464.125H150.562V465.25H151.688V470.875H150.562V472H147.188V474.25H144.938V464.125ZM149.438 465.25H147.188V470.875H149.438V465.25ZM158.438 468.625H156.188V470.875H158.438V468.625ZM155.062 464.125H159.562V465.25H160.688V472H155.062V470.875H153.938V468.625H155.062V467.5H158.438V465.25H156.188V466.375H153.938V465.25H155.062V464.125ZM164.062 464.125H168.562V465.25H169.688V466.375H167.438V465.25H165.188V470.875H167.438V469.75H169.688V470.875H168.562V472H164.062V470.875H162.938V465.25H164.062V464.125ZM176.438 465.25H174.188V467.5H176.438V465.25ZM173.062 464.125H177.562V465.25H178.688V468.625H174.188V470.875H176.438V469.75H178.688V470.875H177.562V472H173.062V470.875H171.938V465.25H173.062V464.125ZM182.062 470.875H184.312V473.125H183.188V474.25H180.938V473.125H182.062V470.875ZM196.688 465.25H194.438V467.5H196.688V465.25ZM193.312 464.125H197.812V465.25H198.938V468.625H194.438V470.875H196.688V469.75H198.938V470.875H197.812V472H193.312V470.875H192.188V465.25H193.312V464.125ZM201.188 464.125H206.812V465.25H207.938V472H205.688V465.25H203.438V472H201.188V464.125ZM211.312 463H213.562V464.125H215.812V465.25H213.562V470.875H215.812V472H212.438V470.875H211.312V465.25H210.188V464.125H211.312V463ZM222.562 465.25H220.312V467.5H222.562V465.25ZM219.188 464.125H223.688V465.25H224.812V468.625H220.312V470.875H222.562V469.75H224.812V470.875H223.688V472H219.188V470.875H218.062V465.25H219.188V464.125ZM227.062 464.125H229.312V466.375H230.438V467.5H229.312V472H227.062V464.125ZM231.562 464.125H233.812V466.375H230.438V465.25H231.562V464.125ZM237.188 470.875H239.438V473.125H238.312V474.25H236.062V473.125H237.188V470.875ZM248.438 464.125H252.938V465.25H254.062V470.875H252.938V472H248.438V470.875H247.312V465.25H248.438V464.125ZM251.812 465.25H249.562V470.875H251.812V465.25ZM256.312 464.125H258.562V466.375H259.688V467.5H258.562V472H256.312V464.125ZM260.812 464.125H263.062V466.375H259.688V465.25H260.812V464.125ZM270.938 464.125H275.438V465.25H276.562V466.375H274.312V465.25H272.062V470.875H274.312V469.75H276.562V470.875H275.438V472H270.938V470.875H269.812V465.25H270.938V464.125ZM279.938 461.875H282.188V470.875H283.312V472H281.062V470.875H279.938V461.875ZM286.688 464.125H288.938V472H286.688V464.125ZM286.688 461.875H288.938V463H286.688V461.875ZM293.438 464.125H297.938V465.25H299.062V466.375H296.812V465.25H294.562V470.875H296.812V469.75H299.062V470.875H297.938V472H293.438V470.875H292.312V465.25H293.438V464.125ZM301.312 461.875H303.562V466.375H304.688V465.25H305.812V464.125H308.062V465.25H306.938V466.375H305.812V467.5H304.688V468.625H305.812V469.75H306.938V470.875H308.062V472H305.812V470.875H304.688V469.75H303.562V472H301.312V461.875ZM130.312 482H132.562V483.125H134.812V484.25H132.562V489.875H134.812V491H131.438V489.875H130.312V484.25H129.188V483.125H130.312V482ZM138.188 483.125H142.688V484.25H143.812V489.875H142.688V491H138.188V489.875H137.062V484.25H138.188V483.125ZM141.562 484.25H139.312V489.875H141.562V484.25ZM152.812 480.875H156.188V482H153.938V484.25H156.188V485.375H153.938V491H151.688V485.375H150.562V484.25H151.688V482H152.812V480.875ZM159.562 480.875H161.812V489.875H162.938V491H160.688V489.875H159.562V480.875ZM169.688 487.625H167.438V489.875H169.688V487.625ZM166.312 483.125H170.812V484.25H171.938V491H166.312V489.875H165.188V487.625H166.312V486.5H169.688V484.25H167.438V485.375H165.188V484.25H166.312V483.125ZM174.188 483.125H179.812V484.25H180.938V489.875H179.812V491H176.438V493.25H174.188V483.125ZM178.688 484.25H176.438V489.875H178.688V484.25ZM187.688 483.125H189.938V488.75H192.188V483.125H194.438V492.125H193.312V493.25H188.812V492.125H187.688V491H189.938V492.125H192.188V489.875H188.812V488.75H187.688V483.125ZM197.812 483.125H202.312V484.25H203.438V489.875H202.312V491H197.812V489.875H196.688V484.25H197.812V483.125ZM201.188 484.25H198.938V489.875H201.188V484.25ZM205.688 483.125H207.938V489.875H210.188V483.125H212.438V489.875H211.312V491H206.812V489.875H205.688V483.125ZM214.688 483.125H216.938V485.375H218.062V486.5H216.938V491H214.688V483.125ZM219.188 483.125H221.438V485.375H218.062V484.25H219.188V483.125ZM228.188 483.125H230.438V489.875H231.562V491H229.312V489.875H228.188V483.125ZM231.562 485.375H232.688V489.875H231.562V485.375ZM233.812 483.125H236.062V489.875H234.938V491H232.688V489.875H233.812V483.125ZM239.438 483.125H241.688V491H239.438V483.125ZM239.438 480.875H241.688V482H239.438V480.875ZM245.062 483.125H250.688V484.25H251.812V491H249.562V484.25H247.312V491H245.062V483.125ZM258.562 484.25H256.312V488.75H258.562V484.25ZM255.188 483.125H260.812V492.125H259.688V493.25H255.188V492.125H254.062V491H256.312V492.125H258.562V489.875H255.188V488.75H254.062V484.25H255.188V483.125ZM264.188 483.125H268.688V484.25H269.812V485.375H267.562V484.25H265.312V486.5H268.688V487.625H269.812V489.875H268.688V491H264.188V489.875H263.062V488.75H265.312V489.875H267.562V487.625H264.188V486.5H263.062V484.25H264.188V483.125Z"/>
</mask>
<path d="M86.4375 461.875H92.0625V463H93.1875V466.375H92.0625V467.5H88.6875V472H86.4375V461.875ZM90.9375 463H88.6875V466.375H90.9375V463ZM95.4375 464.125H97.6875V466.375H98.8125V467.5H97.6875V472H95.4375V464.125ZM99.9375 464.125H102.188V466.375H98.8125V465.25H99.9375V464.125ZM108.938 465.25H106.688V467.5H108.938V465.25ZM105.562 464.125H110.062V465.25H111.188V468.625H106.688V470.875H108.938V469.75H111.188V470.875H110.062V472H105.562V470.875H104.438V465.25H105.562V464.125ZM114.562 464.125H119.062V465.25H120.188V466.375H117.938V465.25H115.688V467.5H119.062V468.625H120.188V470.875H119.062V472H114.562V470.875H113.438V469.75H115.688V470.875H117.938V468.625H114.562V467.5H113.438V465.25H114.562V464.125ZM123.562 464.125H128.062V465.25H129.188V466.375H126.938V465.25H124.688V467.5H128.062V468.625H129.188V470.875H128.062V472H123.562V470.875H122.438V469.75H124.688V470.875H126.938V468.625H123.562V467.5H122.438V465.25H123.562V464.125ZM137.062 464.125H141.562V465.25H142.688V466.375H140.438V465.25H138.188V467.5H141.562V468.625H142.688V470.875H141.562V472H137.062V470.875H135.938V469.75H138.188V470.875H140.438V468.625H137.062V467.5H135.938V465.25H137.062V464.125ZM144.938 464.125H150.562V465.25H151.688V470.875H150.562V472H147.188V474.25H144.938V464.125ZM149.438 465.25H147.188V470.875H149.438V465.25ZM158.438 468.625H156.188V470.875H158.438V468.625ZM155.062 464.125H159.562V465.25H160.688V472H155.062V470.875H153.938V468.625H155.062V467.5H158.438V465.25H156.188V466.375H153.938V465.25H155.062V464.125ZM164.062 464.125H168.562V465.25H169.688V466.375H167.438V465.25H165.188V470.875H167.438V469.75H169.688V470.875H168.562V472H164.062V470.875H162.938V465.25H164.062V464.125ZM176.438 465.25H174.188V467.5H176.438V465.25ZM173.062 464.125H177.562V465.25H178.688V468.625H174.188V470.875H176.438V469.75H178.688V470.875H177.562V472H173.062V470.875H171.938V465.25H173.062V464.125ZM182.062 470.875H184.312V473.125H183.188V474.25H180.938V473.125H182.062V470.875ZM196.688 465.25H194.438V467.5H196.688V465.25ZM193.312 464.125H197.812V465.25H198.938V468.625H194.438V470.875H196.688V469.75H198.938V470.875H197.812V472H193.312V470.875H192.188V465.25H193.312V464.125ZM201.188 464.125H206.812V465.25H207.938V472H205.688V465.25H203.438V472H201.188V464.125ZM211.312 463H213.562V464.125H215.812V465.25H213.562V470.875H215.812V472H212.438V470.875H211.312V465.25H210.188V464.125H211.312V463ZM222.562 465.25H220.312V467.5H222.562V465.25ZM219.188 464.125H223.688V465.25H224.812V468.625H220.312V470.875H222.562V469.75H224.812V470.875H223.688V472H219.188V470.875H218.062V465.25H219.188V464.125ZM227.062 464.125H229.312V466.375H230.438V467.5H229.312V472H227.062V464.125ZM231.562 464.125H233.812V466.375H230.438V465.25H231.562V464.125ZM237.188 470.875H239.438V473.125H238.312V474.25H236.062V473.125H237.188V470.875ZM248.438 464.125H252.938V465.25H254.062V470.875H252.938V472H248.438V470.875H247.312V465.25H248.438V464.125ZM251.812 465.25H249.562V470.875H251.812V465.25ZM256.312 464.125H258.562V466.375H259.688V467.5H258.562V472H256.312V464.125ZM260.812 464.125H263.062V466.375H259.688V465.25H260.812V464.125ZM270.938 464.125H275.438V465.25H276.562V466.375H274.312V465.25H272.062V470.875H274.312V469.75H276.562V470.875H275.438V472H270.938V470.875H269.812V465.25H270.938V464.125ZM279.938 461.875H282.188V470.875H283.312V472H281.062V470.875H279.938V461.875ZM286.688 464.125H288.938V472H286.688V464.125ZM286.688 461.875H288.938V463H286.688V461.875ZM293.438 464.125H297.938V465.25H299.062V466.375H296.812V465.25H294.562V470.875H296.812V469.75H299.062V470.875H297.938V472H293.438V470.875H292.312V465.25H293.438V464.125ZM301.312 461.875H303.562V466.375H304.688V465.25H305.812V464.125H308.062V465.25H306.938V466.375H305.812V467.5H304.688V468.625H305.812V469.75H306.938V470.875H308.062V472H305.812V470.875H304.688V469.75H303.562V472H301.312V461.875ZM130.312 482H132.562V483.125H134.812V484.25H132.562V489.875H134.812V491H131.438V489.875H130.312V484.25H129.188V483.125H130.312V482ZM138.188 483.125H142.688V484.25H143.812V489.875H142.688V491H138.188V489.875H137.062V484.25H138.188V483.125ZM141.562 484.25H139.312V489.875H141.562V484.25ZM152.812 480.875H156.188V482H153.938V484.25H156.188V485.375H153.938V491H151.688V485.375H150.562V484.25H151.688V482H152.812V480.875ZM159.562 480.875H161.812V489.875H162.938V491H160.688V489.875H159.562V480.875ZM169.688 487.625H167.438V489.875H169.688V487.625ZM166.312 483.125H170.812V484.25H171.938V491H166.312V489.875H165.188V487.625H166.312V486.5H169.688V484.25H167.438V485.375H165.188V484.25H166.312V483.125ZM174.188 483.125H179.812V484.25H180.938V489.875H179.812V491H176.438V493.25H174.188V483.125ZM178.688 484.25H176.438V489.875H178.688V484.25ZM187.688 483.125H189.938V488.75H192.188V483.125H194.438V492.125H193.312V493.25H188.812V492.125H187.688V491H189.938V492.125H192.188V489.875H188.812V488.75H187.688V483.125ZM197.812 483.125H202.312V484.25H203.438V489.875H202.312V491H197.812V489.875H196.688V484.25H197.812V483.125ZM201.188 484.25H198.938V489.875H201.188V484.25ZM205.688 483.125H207.938V489.875H210.188V483.125H212.438V489.875H211.312V491H206.812V489.875H205.688V483.125ZM214.688 483.125H216.938V485.375H218.062V486.5H216.938V491H214.688V483.125ZM219.188 483.125H221.438V485.375H218.062V484.25H219.188V483.125ZM228.188 483.125H230.438V489.875H231.562V491H229.312V489.875H228.188V483.125ZM231.562 485.375H232.688V489.875H231.562V485.375ZM233.812 483.125H236.062V489.875H234.938V491H232.688V489.875H233.812V483.125ZM239.438 483.125H241.688V491H239.438V483.125ZM239.438 480.875H241.688V482H239.438V480.875ZM245.062 483.125H250.688V484.25H251.812V491H249.562V484.25H247.312V491H245.062V483.125ZM258.562 484.25H256.312V488.75H258.562V484.25ZM255.188 483.125H260.812V492.125H259.688V493.25H255.188V492.125H254.062V491H256.312V492.125H258.562V489.875H255.188V488.75H254.062V484.25H255.188V483.125ZM264.188 483.125H268.688V484.25H269.812V485.375H267.562V484.25H265.312V486.5H268.688V487.625H269.812V489.875H268.688V491H264.188V489.875H263.062V488.75H265.312V489.875H267.562V487.625H264.188V486.5H263.062V484.25H264.188V483.125Z" fill="black"/>
<path d="M86.4375 461.875V460.875H85.4375V461.875H86.4375ZM92.0625 461.875H93.0625V460.875H92.0625V461.875ZM92.0625 463H91.0625V464H92.0625V463ZM93.1875 463H94.1875V462H93.1875V463ZM93.1875 466.375V467.375H94.1875V466.375H93.1875ZM92.0625 466.375V465.375H91.0625V466.375H92.0625ZM92.0625 467.5V468.5H93.0625V467.5H92.0625ZM88.6875 467.5V466.5H87.6875V467.5H88.6875ZM88.6875 472V473H89.6875V472H88.6875ZM86.4375 472H85.4375V473H86.4375V472ZM90.9375 463H91.9375V462H90.9375V463ZM88.6875 463V462H87.6875V463H88.6875ZM88.6875 466.375H87.6875V467.375H88.6875V466.375ZM90.9375 466.375V467.375H91.9375V466.375H90.9375ZM86.4375 462.875H92.0625V460.875H86.4375V462.875ZM91.0625 461.875V463H93.0625V461.875H91.0625ZM92.0625 464H93.1875V462H92.0625V464ZM92.1875 463V466.375H94.1875V463H92.1875ZM93.1875 465.375H92.0625V467.375H93.1875V465.375ZM91.0625 466.375V467.5H93.0625V466.375H91.0625ZM92.0625 466.5H88.6875V468.5H92.0625V466.5ZM87.6875 467.5V472H89.6875V467.5H87.6875ZM88.6875 471H86.4375V473H88.6875V471ZM87.4375 472V461.875H85.4375V472H87.4375ZM90.9375 462H88.6875V464H90.9375V462ZM87.6875 463V466.375H89.6875V463H87.6875ZM88.6875 467.375H90.9375V465.375H88.6875V467.375ZM91.9375 466.375V463H89.9375V466.375H91.9375ZM95.4375 464.125V463.125H94.4375V464.125H95.4375ZM97.6875 464.125H98.6875V463.125H97.6875V464.125ZM97.6875 466.375H96.6875V467.375H97.6875V466.375ZM98.8125 466.375H99.8125V465.375H98.8125V466.375ZM98.8125 467.5V468.5H99.8125V467.5H98.8125ZM97.6875 467.5V466.5H96.6875V467.5H97.6875ZM97.6875 472V473H98.6875V472H97.6875ZM95.4375 472H94.4375V473H95.4375V472ZM99.9375 464.125V463.125H98.9375V464.125H99.9375ZM102.188 464.125H103.188V463.125H102.188V464.125ZM102.188 466.375V467.375H103.188V466.375H102.188ZM98.8125 466.375H97.8125V467.375H98.8125V466.375ZM98.8125 465.25V464.25H97.8125V465.25H98.8125ZM99.9375 465.25V466.25H100.938V465.25H99.9375ZM95.4375 465.125H97.6875V463.125H95.4375V465.125ZM96.6875 464.125V466.375H98.6875V464.125H96.6875ZM97.6875 467.375H98.8125V465.375H97.6875V467.375ZM97.8125 466.375V467.5H99.8125V466.375H97.8125ZM98.8125 466.5H97.6875V468.5H98.8125V466.5ZM96.6875 467.5V472H98.6875V467.5H96.6875ZM97.6875 471H95.4375V473H97.6875V471ZM96.4375 472V464.125H94.4375V472H96.4375ZM99.9375 465.125H102.188V463.125H99.9375V465.125ZM101.188 464.125V466.375H103.188V464.125H101.188ZM102.188 465.375H98.8125V467.375H102.188V465.375ZM99.8125 466.375V465.25H97.8125V466.375H99.8125ZM98.8125 466.25H99.9375V464.25H98.8125V466.25ZM100.938 465.25V464.125H98.9375V465.25H100.938ZM108.938 465.25H109.938V464.25H108.938V465.25ZM106.688 465.25V464.25H105.688V465.25H106.688ZM106.688 467.5H105.688V468.5H106.688V467.5ZM108.938 467.5V468.5H109.938V467.5H108.938ZM105.562 464.125V463.125H104.562V464.125H105.562ZM110.062 464.125H111.062V463.125H110.062V464.125ZM110.062 465.25H109.062V466.25H110.062V465.25ZM111.188 465.25H112.188V464.25H111.188V465.25ZM111.188 468.625V469.625H112.188V468.625H111.188ZM106.688 468.625V467.625H105.688V468.625H106.688ZM106.688 470.875H105.688V471.875H106.688V470.875ZM108.938 470.875V471.875H109.938V470.875H108.938ZM108.938 469.75V468.75H107.938V469.75H108.938ZM111.188 469.75H112.188V468.75H111.188V469.75ZM111.188 470.875V471.875H112.188V470.875H111.188ZM110.062 470.875V469.875H109.062V470.875H110.062ZM110.062 472V473H111.062V472H110.062ZM105.562 472H104.562V473H105.562V472ZM105.562 470.875H106.562V469.875H105.562V470.875ZM104.438 470.875H103.438V471.875H104.438V470.875ZM104.438 465.25V464.25H103.438V465.25H104.438ZM105.562 465.25V466.25H106.562V465.25H105.562ZM108.938 464.25H106.688V466.25H108.938V464.25ZM105.688 465.25V467.5H107.688V465.25H105.688ZM106.688 468.5H108.938V466.5H106.688V468.5ZM109.938 467.5V465.25H107.938V467.5H109.938ZM105.562 465.125H110.062V463.125H105.562V465.125ZM109.062 464.125V465.25H111.062V464.125H109.062ZM110.062 466.25H111.188V464.25H110.062V466.25ZM110.188 465.25V468.625H112.188V465.25H110.188ZM111.188 467.625H106.688V469.625H111.188V467.625ZM105.688 468.625V470.875H107.688V468.625H105.688ZM106.688 471.875H108.938V469.875H106.688V471.875ZM109.938 470.875V469.75H107.938V470.875H109.938ZM108.938 470.75H111.188V468.75H108.938V470.75ZM110.188 469.75V470.875H112.188V469.75H110.188ZM111.188 469.875H110.062V471.875H111.188V469.875ZM109.062 470.875V472H111.062V470.875H109.062ZM110.062 471H105.562V473H110.062V471ZM106.562 472V470.875H104.562V472H106.562ZM105.562 469.875H104.438V471.875H105.562V469.875ZM105.438 470.875V465.25H103.438V470.875H105.438ZM104.438 466.25H105.562V464.25H104.438V466.25ZM106.562 465.25V464.125H104.562V465.25H106.562ZM114.562 464.125V463.125H113.562V464.125H114.562ZM119.062 464.125H120.062V463.125H119.062V464.125ZM119.062 465.25H118.062V466.25H119.062V465.25ZM120.188 465.25H121.188V464.25H120.188V465.25ZM120.188 466.375V467.375H121.188V466.375H120.188ZM117.938 466.375H116.938V467.375H117.938V466.375ZM117.938 465.25H118.938V464.25H117.938V465.25ZM115.688 465.25V464.25H114.688V465.25H115.688ZM115.688 467.5H114.688V468.5H115.688V467.5ZM119.062 467.5H120.062V466.5H119.062V467.5ZM119.062 468.625H118.062V469.625H119.062V468.625ZM120.188 468.625H121.188V467.625H120.188V468.625ZM120.188 470.875V471.875H121.188V470.875H120.188ZM119.062 470.875V469.875H118.062V470.875H119.062ZM119.062 472V473H120.062V472H119.062ZM114.562 472H113.562V473H114.562V472ZM114.562 470.875H115.562V469.875H114.562V470.875ZM113.438 470.875H112.438V471.875H113.438V470.875ZM113.438 469.75V468.75H112.438V469.75H113.438ZM115.688 469.75H116.688V468.75H115.688V469.75ZM115.688 470.875H114.688V471.875H115.688V470.875ZM117.938 470.875V471.875H118.938V470.875H117.938ZM117.938 468.625H118.938V467.625H117.938V468.625ZM114.562 468.625H113.562V469.625H114.562V468.625ZM114.562 467.5H115.562V466.5H114.562V467.5ZM113.438 467.5H112.438V468.5H113.438V467.5ZM113.438 465.25V464.25H112.438V465.25H113.438ZM114.562 465.25V466.25H115.562V465.25H114.562ZM114.562 465.125H119.062V463.125H114.562V465.125ZM118.062 464.125V465.25H120.062V464.125H118.062ZM119.062 466.25H120.188V464.25H119.062V466.25ZM119.188 465.25V466.375H121.188V465.25H119.188ZM120.188 465.375H117.938V467.375H120.188V465.375ZM118.938 466.375V465.25H116.938V466.375H118.938ZM117.938 464.25H115.688V466.25H117.938V464.25ZM114.688 465.25V467.5H116.688V465.25H114.688ZM115.688 468.5H119.062V466.5H115.688V468.5ZM118.062 467.5V468.625H120.062V467.5H118.062ZM119.062 469.625H120.188V467.625H119.062V469.625ZM119.188 468.625V470.875H121.188V468.625H119.188ZM120.188 469.875H119.062V471.875H120.188V469.875ZM118.062 470.875V472H120.062V470.875H118.062ZM119.062 471H114.562V473H119.062V471ZM115.562 472V470.875H113.562V472H115.562ZM114.562 469.875H113.438V471.875H114.562V469.875ZM114.438 470.875V469.75H112.438V470.875H114.438ZM113.438 470.75H115.688V468.75H113.438V470.75ZM114.688 469.75V470.875H116.688V469.75H114.688ZM115.688 471.875H117.938V469.875H115.688V471.875ZM118.938 470.875V468.625H116.938V470.875H118.938ZM117.938 467.625H114.562V469.625H117.938V467.625ZM115.562 468.625V467.5H113.562V468.625H115.562ZM114.562 466.5H113.438V468.5H114.562V466.5ZM114.438 467.5V465.25H112.438V467.5H114.438ZM113.438 466.25H114.562V464.25H113.438V466.25ZM115.562 465.25V464.125H113.562V465.25H115.562ZM123.562 464.125V463.125H122.562V464.125H123.562ZM128.062 464.125H129.062V463.125H128.062V464.125ZM128.062 465.25H127.062V466.25H128.062V465.25ZM129.188 465.25H130.188V464.25H129.188V465.25ZM129.188 466.375V467.375H130.188V466.375H129.188ZM126.938 466.375H125.938V467.375H126.938V466.375ZM126.938 465.25H127.938V464.25H126.938V465.25ZM124.688 465.25V464.25H123.688V465.25H124.688ZM124.688 467.5H123.688V468.5H124.688V467.5ZM128.062 467.5H129.062V466.5H128.062V467.5ZM128.062 468.625H127.062V469.625H128.062V468.625ZM129.188 468.625H130.188V467.625H129.188V468.625ZM129.188 470.875V471.875H130.188V470.875H129.188ZM128.062 470.875V469.875H127.062V470.875H128.062ZM128.062 472V473H129.062V472H128.062ZM123.562 472H122.562V473H123.562V472ZM123.562 470.875H124.562V469.875H123.562V470.875ZM122.438 470.875H121.438V471.875H122.438V470.875ZM122.438 469.75V468.75H121.438V469.75H122.438ZM124.688 469.75H125.688V468.75H124.688V469.75ZM124.688 470.875H123.688V471.875H124.688V470.875ZM126.938 470.875V471.875H127.938V470.875H126.938ZM126.938 468.625H127.938V467.625H126.938V468.625ZM123.562 468.625H122.562V469.625H123.562V468.625ZM123.562 467.5H124.562V466.5H123.562V467.5ZM122.438 467.5H121.438V468.5H122.438V467.5ZM122.438 465.25V464.25H121.438V465.25H122.438ZM123.562 465.25V466.25H124.562V465.25H123.562ZM123.562 465.125H128.062V463.125H123.562V465.125ZM127.062 464.125V465.25H129.062V464.125H127.062ZM128.062 466.25H129.188V464.25H128.062V466.25ZM128.188 465.25V466.375H130.188V465.25H128.188ZM129.188 465.375H126.938V467.375H129.188V465.375ZM127.938 466.375V465.25H125.938V466.375H127.938ZM126.938 464.25H124.688V466.25H126.938V464.25ZM123.688 465.25V467.5H125.688V465.25H123.688ZM124.688 468.5H128.062V466.5H124.688V468.5ZM127.062 467.5V468.625H129.062V467.5H127.062ZM128.062 469.625H129.188V467.625H128.062V469.625ZM128.188 468.625V470.875H130.188V468.625H128.188ZM129.188 469.875H128.062V471.875H129.188V469.875ZM127.062 470.875V472H129.062V470.875H127.062ZM128.062 471H123.562V473H128.062V471ZM124.562 472V470.875H122.562V472H124.562ZM123.562 469.875H122.438V471.875H123.562V469.875ZM123.438 470.875V469.75H121.438V470.875H123.438ZM122.438 470.75H124.688V468.75H122.438V470.75ZM123.688 469.75V470.875H125.688V469.75H123.688ZM124.688 471.875H126.938V469.875H124.688V471.875ZM127.938 470.875V468.625H125.938V470.875H127.938ZM126.938 467.625H123.562V469.625H126.938V467.625ZM124.562 468.625V467.5H122.562V468.625H124.562ZM123.562 466.5H122.438V468.5H123.562V466.5ZM123.438 467.5V465.25H121.438V467.5H123.438ZM122.438 466.25H123.562V464.25H122.438V466.25ZM124.562 465.25V464.125H122.562V465.25H124.562ZM137.062 464.125V463.125H136.062V464.125H137.062ZM141.562 464.125H142.562V463.125H141.562V464.125ZM141.562 465.25H140.562V466.25H141.562V465.25ZM142.688 465.25H143.688V464.25H142.688V465.25ZM142.688 466.375V467.375H143.688V466.375H142.688ZM140.438 466.375H139.438V467.375H140.438V466.375ZM140.438 465.25H141.438V464.25H140.438V465.25ZM138.188 465.25V464.25H137.188V465.25H138.188ZM138.188 467.5H137.188V468.5H138.188V467.5ZM141.562 467.5H142.562V466.5H141.562V467.5ZM141.562 468.625H140.562V469.625H141.562V468.625ZM142.688 468.625H143.688V467.625H142.688V468.625ZM142.688 470.875V471.875H143.688V470.875H142.688ZM141.562 470.875V469.875H140.562V470.875H141.562ZM141.562 472V473H142.562V472H141.562ZM137.062 472H136.062V473H137.062V472ZM137.062 470.875H138.062V469.875H137.062V470.875ZM135.938 470.875H134.938V471.875H135.938V470.875ZM135.938 469.75V468.75H134.938V469.75H135.938ZM138.188 469.75H139.188V468.75H138.188V469.75ZM138.188 470.875H137.188V471.875H138.188V470.875ZM140.438 470.875V471.875H141.438V470.875H140.438ZM140.438 468.625H141.438V467.625H140.438V468.625ZM137.062 468.625H136.062V469.625H137.062V468.625ZM137.062 467.5H138.062V466.5H137.062V467.5ZM135.938 467.5H134.938V468.5H135.938V467.5ZM135.938 465.25V464.25H134.938V465.25H135.938ZM137.062 465.25V466.25H138.062V465.25H137.062ZM137.062 465.125H141.562V463.125H137.062V465.125ZM140.562 464.125V465.25H142.562V464.125H140.562ZM141.562 466.25H142.688V464.25H141.562V466.25ZM141.688 465.25V466.375H143.688V465.25H141.688ZM142.688 465.375H140.438V467.375H142.688V465.375ZM141.438 466.375V465.25H139.438V466.375H141.438ZM140.438 464.25H138.188V466.25H140.438V464.25ZM137.188 465.25V467.5H139.188V465.25H137.188ZM138.188 468.5H141.562V466.5H138.188V468.5ZM140.562 467.5V468.625H142.562V467.5H140.562ZM141.562 469.625H142.688V467.625H141.562V469.625ZM141.688 468.625V470.875H143.688V468.625H141.688ZM142.688 469.875H141.562V471.875H142.688V469.875ZM140.562 470.875V472H142.562V470.875H140.562ZM141.562 471H137.062V473H141.562V471ZM138.062 472V470.875H136.062V472H138.062ZM137.062 469.875H135.938V471.875H137.062V469.875ZM136.938 470.875V469.75H134.938V470.875H136.938ZM135.938 470.75H138.188V468.75H135.938V470.75ZM137.188 469.75V470.875H139.188V469.75H137.188ZM138.188 471.875H140.438V469.875H138.188V471.875ZM141.438 470.875V468.625H139.438V470.875H141.438ZM140.438 467.625H137.062V469.625H140.438V467.625ZM138.062 468.625V467.5H136.062V468.625H138.062ZM137.062 466.5H135.938V468.5H137.062V466.5ZM136.938 467.5V465.25H134.938V467.5H136.938ZM135.938 466.25H137.062V464.25H135.938V466.25ZM138.062 465.25V464.125H136.062V465.25H138.062ZM144.938 464.125V463.125H143.938V464.125H144.938ZM150.562 464.125H151.562V463.125H150.562V464.125ZM150.562 465.25H149.562V466.25H150.562V465.25ZM151.688 465.25H152.688V464.25H151.688V465.25ZM151.688 470.875V471.875H152.688V470.875H151.688ZM150.562 470.875V469.875H149.562V470.875H150.562ZM150.562 472V473H151.562V472H150.562ZM147.188 472V471H146.188V472H147.188ZM147.188 474.25V475.25H148.188V474.25H147.188ZM144.938 474.25H143.938V475.25H144.938V474.25ZM149.438 465.25H150.438V464.25H149.438V465.25ZM147.188 465.25V464.25H146.188V465.25H147.188ZM147.188 470.875H146.188V471.875H147.188V470.875ZM149.438 470.875V471.875H150.438V470.875H149.438ZM144.938 465.125H150.562V463.125H144.938V465.125ZM149.562 464.125V465.25H151.562V464.125H149.562ZM150.562 466.25H151.688V464.25H150.562V466.25ZM150.688 465.25V470.875H152.688V465.25H150.688ZM151.688 469.875H150.562V471.875H151.688V469.875ZM149.562 470.875V472H151.562V470.875H149.562ZM150.562 471H147.188V473H150.562V471ZM146.188 472V474.25H148.188V472H146.188ZM147.188 473.25H144.938V475.25H147.188V473.25ZM145.938 474.25V464.125H143.938V474.25H145.938ZM149.438 464.25H147.188V466.25H149.438V464.25ZM146.188 465.25V470.875H148.188V465.25H146.188ZM147.188 471.875H149.438V469.875H147.188V471.875ZM150.438 470.875V465.25H148.438V470.875H150.438ZM158.438 468.625H159.438V467.625H158.438V468.625ZM156.188 468.625V467.625H155.188V468.625H156.188ZM156.188 470.875H155.188V471.875H156.188V470.875ZM158.438 470.875V471.875H159.438V470.875H158.438ZM155.062 464.125V463.125H154.062V464.125H155.062ZM159.562 464.125H160.562V463.125H159.562V464.125ZM159.562 465.25H158.562V466.25H159.562V465.25ZM160.688 465.25H161.688V464.25H160.688V465.25ZM160.688 472V473H161.688V472H160.688ZM155.062 472H154.062V473H155.062V472ZM155.062 470.875H156.062V469.875H155.062V470.875ZM153.938 470.875H152.938V471.875H153.938V470.875ZM153.938 468.625V467.625H152.938V468.625H153.938ZM155.062 468.625V469.625H156.062V468.625H155.062ZM155.062 467.5V466.5H154.062V467.5H155.062ZM158.438 467.5V468.5H159.438V467.5H158.438ZM158.438 465.25H159.438V464.25H158.438V465.25ZM156.188 465.25V464.25H155.188V465.25H156.188ZM156.188 466.375V467.375H157.188V466.375H156.188ZM153.938 466.375H152.938V467.375H153.938V466.375ZM153.938 465.25V464.25H152.938V465.25H153.938ZM155.062 465.25V466.25H156.062V465.25H155.062ZM158.438 467.625H156.188V469.625H158.438V467.625ZM155.188 468.625V470.875H157.188V468.625H155.188ZM156.188 471.875H158.438V469.875H156.188V471.875ZM159.438 470.875V468.625H157.438V470.875H159.438ZM155.062 465.125H159.562V463.125H155.062V465.125ZM158.562 464.125V465.25H160.562V464.125H158.562ZM159.562 466.25H160.688V464.25H159.562V466.25ZM159.688 465.25V472H161.688V465.25H159.688ZM160.688 471H155.062V473H160.688V471ZM156.062 472V470.875H154.062V472H156.062ZM155.062 469.875H153.938V471.875H155.062V469.875ZM154.938 470.875V468.625H152.938V470.875H154.938ZM153.938 469.625H155.062V467.625H153.938V469.625ZM156.062 468.625V467.5H154.062V468.625H156.062ZM155.062 468.5H158.438V466.5H155.062V468.5ZM159.438 467.5V465.25H157.438V467.5H159.438ZM158.438 464.25H156.188V466.25H158.438V464.25ZM155.188 465.25V466.375H157.188V465.25H155.188ZM156.188 465.375H153.938V467.375H156.188V465.375ZM154.938 466.375V465.25H152.938V466.375H154.938ZM153.938 466.25H155.062V464.25H153.938V466.25ZM156.062 465.25V464.125H154.062V465.25H156.062ZM164.062 464.125V463.125H163.062V464.125H164.062ZM168.562 464.125H169.562V463.125H168.562V464.125ZM168.562 465.25H167.562V466.25H168.562V465.25ZM169.688 465.25H170.688V464.25H169.688V465.25ZM169.688 466.375V467.375H170.688V466.375H169.688ZM167.438 466.375H166.438V467.375H167.438V466.375ZM167.438 465.25H168.438V464.25H167.438V465.25ZM165.188 465.25V464.25H164.188V465.25H165.188ZM165.188 470.875H164.188V471.875H165.188V470.875ZM167.438 470.875V471.875H168.438V470.875H167.438ZM167.438 469.75V468.75H166.438V469.75H167.438ZM169.688 469.75H170.688V468.75H169.688V469.75ZM169.688 470.875V471.875H170.688V470.875H169.688ZM168.562 470.875V469.875H167.562V470.875H168.562ZM168.562 472V473H169.562V472H168.562ZM164.062 472H163.062V473H164.062V472ZM164.062 470.875H165.062V469.875H164.062V470.875ZM162.938 470.875H161.938V471.875H162.938V470.875ZM162.938 465.25V464.25H161.938V465.25H162.938ZM164.062 465.25V466.25H165.062V465.25H164.062ZM164.062 465.125H168.562V463.125H164.062V465.125ZM167.562 464.125V465.25H169.562V464.125H167.562ZM168.562 466.25H169.688V464.25H168.562V466.25ZM168.688 465.25V466.375H170.688V465.25H168.688ZM169.688 465.375H167.438V467.375H169.688V465.375ZM168.438 466.375V465.25H166.438V466.375H168.438ZM167.438 464.25H165.188V466.25H167.438V464.25ZM164.188 465.25V470.875H166.188V465.25H164.188ZM165.188 471.875H167.438V469.875H165.188V471.875ZM168.438 470.875V469.75H166.438V470.875H168.438ZM167.438 470.75H169.688V468.75H167.438V470.75ZM168.688 469.75V470.875H170.688V469.75H168.688ZM169.688 469.875H168.562V471.875H169.688V469.875ZM167.562 470.875V472H169.562V470.875H167.562ZM168.562 471H164.062V473H168.562V471ZM165.062 472V470.875H163.062V472H165.062ZM164.062 469.875H162.938V471.875H164.062V469.875ZM163.938 470.875V465.25H161.938V470.875H163.938ZM162.938 466.25H164.062V464.25H162.938V466.25ZM165.062 465.25V464.125H163.062V465.25H165.062ZM176.438 465.25H177.438V464.25H176.438V465.25ZM174.188 465.25V464.25H173.188V465.25H174.188ZM174.188 467.5H173.188V468.5H174.188V467.5ZM176.438 467.5V468.5H177.438V467.5H176.438ZM173.062 464.125V463.125H172.062V464.125H173.062ZM177.562 464.125H178.562V463.125H177.562V464.125ZM177.562 465.25H176.562V466.25H177.562V465.25ZM178.688 465.25H179.688V464.25H178.688V465.25ZM178.688 468.625V469.625H179.688V468.625H178.688ZM174.188 468.625V467.625H173.188V468.625H174.188ZM174.188 470.875H173.188V471.875H174.188V470.875ZM176.438 470.875V471.875H177.438V470.875H176.438ZM176.438 469.75V468.75H175.438V469.75H176.438ZM178.688 469.75H179.688V468.75H178.688V469.75ZM178.688 470.875V471.875H179.688V470.875H178.688ZM177.562 470.875V469.875H176.562V470.875H177.562ZM177.562 472V473H178.562V472H177.562ZM173.062 472H172.062V473H173.062V472ZM173.062 470.875H174.062V469.875H173.062V470.875ZM171.938 470.875H170.938V471.875H171.938V470.875ZM171.938 465.25V464.25H170.938V465.25H171.938ZM173.062 465.25V466.25H174.062V465.25H173.062ZM176.438 464.25H174.188V466.25H176.438V464.25ZM173.188 465.25V467.5H175.188V465.25H173.188ZM174.188 468.5H176.438V466.5H174.188V468.5ZM177.438 467.5V465.25H175.438V467.5H177.438ZM173.062 465.125H177.562V463.125H173.062V465.125ZM176.562 464.125V465.25H178.562V464.125H176.562ZM177.562 466.25H178.688V464.25H177.562V466.25ZM177.688 465.25V468.625H179.688V465.25H177.688ZM178.688 467.625H174.188V469.625H178.688V467.625ZM173.188 468.625V470.875H175.188V468.625H173.188ZM174.188 471.875H176.438V469.875H174.188V471.875ZM177.438 470.875V469.75H175.438V470.875H177.438ZM176.438 470.75H178.688V468.75H176.438V470.75ZM177.688 469.75V470.875H179.688V469.75H177.688ZM178.688 469.875H177.562V471.875H178.688V469.875ZM176.562 470.875V472H178.562V470.875H176.562ZM177.562 471H173.062V473H177.562V471ZM174.062 472V470.875H172.062V472H174.062ZM173.062 469.875H171.938V471.875H173.062V469.875ZM172.938 470.875V465.25H170.938V470.875H172.938ZM171.938 466.25H173.062V464.25H171.938V466.25ZM174.062 465.25V464.125H172.062V465.25H174.062ZM182.062 470.875V469.875H181.062V470.875H182.062ZM184.312 470.875H185.312V469.875H184.312V470.875ZM184.312 473.125V474.125H185.312V473.125H184.312ZM183.188 473.125V472.125H182.188V473.125H183.188ZM183.188 474.25V475.25H184.188V474.25H183.188ZM180.938 474.25H179.938V475.25H180.938V474.25ZM180.938 473.125V472.125H179.938V473.125H180.938ZM182.062 473.125V474.125H183.062V473.125H182.062ZM182.062 471.875H184.312V469.875H182.062V471.875ZM183.312 470.875V473.125H185.312V470.875H183.312ZM184.312 472.125H183.188V474.125H184.312V472.125ZM182.188 473.125V474.25H184.188V473.125H182.188ZM183.188 473.25H180.938V475.25H183.188V473.25ZM181.938 474.25V473.125H179.938V474.25H181.938ZM180.938 474.125H182.062V472.125H180.938V474.125ZM183.062 473.125V470.875H181.062V473.125H183.062ZM196.688 465.25H197.688V464.25H196.688V465.25ZM194.438 465.25V464.25H193.438V465.25H194.438ZM194.438 467.5H193.438V468.5H194.438V467.5ZM196.688 467.5V468.5H197.688V467.5H196.688ZM193.312 464.125V463.125H192.312V464.125H193.312ZM197.812 464.125H198.812V463.125H197.812V464.125ZM197.812 465.25H196.812V466.25H197.812V465.25ZM198.938 465.25H199.938V464.25H198.938V465.25ZM198.938 468.625V469.625H199.938V468.625H198.938ZM194.438 468.625V467.625H193.438V468.625H194.438ZM194.438 470.875H193.438V471.875H194.438V470.875ZM196.688 470.875V471.875H197.688V470.875H196.688ZM196.688 469.75V468.75H195.688V469.75H196.688ZM198.938 469.75H199.938V468.75H198.938V469.75ZM198.938 470.875V471.875H199.938V470.875H198.938ZM197.812 470.875V469.875H196.812V470.875H197.812ZM197.812 472V473H198.812V472H197.812ZM193.312 472H192.312V473H193.312V472ZM193.312 470.875H194.312V469.875H193.312V470.875ZM192.188 470.875H191.188V471.875H192.188V470.875ZM192.188 465.25V464.25H191.188V465.25H192.188ZM193.312 465.25V466.25H194.312V465.25H193.312ZM196.688 464.25H194.438V466.25H196.688V464.25ZM193.438 465.25V467.5H195.438V465.25H193.438ZM194.438 468.5H196.688V466.5H194.438V468.5ZM197.688 467.5V465.25H195.688V467.5H197.688ZM193.312 465.125H197.812V463.125H193.312V465.125ZM196.812 464.125V465.25H198.812V464.125H196.812ZM197.812 466.25H198.938V464.25H197.812V466.25ZM197.938 465.25V468.625H199.938V465.25H197.938ZM198.938 467.625H194.438V469.625H198.938V467.625ZM193.438 468.625V470.875H195.438V468.625H193.438ZM194.438 471.875H196.688V469.875H194.438V471.875ZM197.688 470.875V469.75H195.688V470.875H197.688ZM196.688 470.75H198.938V468.75H196.688V470.75ZM197.938 469.75V470.875H199.938V469.75H197.938ZM198.938 469.875H197.812V471.875H198.938V469.875ZM196.812 470.875V472H198.812V470.875H196.812ZM197.812 471H193.312V473H197.812V471ZM194.312 472V470.875H192.312V472H194.312ZM193.312 469.875H192.188V471.875H193.312V469.875ZM193.188 470.875V465.25H191.188V470.875H193.188ZM192.188 466.25H193.312V464.25H192.188V466.25ZM194.312 465.25V464.125H192.312V465.25H194.312ZM201.188 464.125V463.125H200.188V464.125H201.188ZM206.812 464.125H207.812V463.125H206.812V464.125ZM206.812 465.25H205.812V466.25H206.812V465.25ZM207.938 465.25H208.938V464.25H207.938V465.25ZM207.938 472V473H208.938V472H207.938ZM205.688 472H204.688V473H205.688V472ZM205.688 465.25H206.688V464.25H205.688V465.25ZM203.438 465.25V464.25H202.438V465.25H203.438ZM203.438 472V473H204.438V472H203.438ZM201.188 472H200.188V473H201.188V472ZM201.188 465.125H206.812V463.125H201.188V465.125ZM205.812 464.125V465.25H207.812V464.125H205.812ZM206.812 466.25H207.938V464.25H206.812V466.25ZM206.938 465.25V472H208.938V465.25H206.938ZM207.938 471H205.688V473H207.938V471ZM206.688 472V465.25H204.688V472H206.688ZM205.688 464.25H203.438V466.25H205.688V464.25ZM202.438 465.25V472H204.438V465.25H202.438ZM203.438 471H201.188V473H203.438V471ZM202.188 472V464.125H200.188V472H202.188ZM211.312 463V462H210.312V463H211.312ZM213.562 463H214.562V462H213.562V463ZM213.562 464.125H212.562V465.125H213.562V464.125ZM215.812 464.125H216.812V463.125H215.812V464.125ZM215.812 465.25V466.25H216.812V465.25H215.812ZM213.562 465.25V464.25H212.562V465.25H213.562ZM213.562 470.875H212.562V471.875H213.562V470.875ZM215.812 470.875H216.812V469.875H215.812V470.875ZM215.812 472V473H216.812V472H215.812ZM212.438 472H211.438V473H212.438V472ZM212.438 470.875H213.438V469.875H212.438V470.875ZM211.312 470.875H210.312V471.875H211.312V470.875ZM211.312 465.25H212.312V464.25H211.312V465.25ZM210.188 465.25H209.188V466.25H210.188V465.25ZM210.188 464.125V463.125H209.188V464.125H210.188ZM211.312 464.125V465.125H212.312V464.125H211.312ZM211.312 464H213.562V462H211.312V464ZM212.562 463V464.125H214.562V463H212.562ZM213.562 465.125H215.812V463.125H213.562V465.125ZM214.812 464.125V465.25H216.812V464.125H214.812ZM215.812 464.25H213.562V466.25H215.812V464.25ZM212.562 465.25V470.875H214.562V465.25H212.562ZM213.562 471.875H215.812V469.875H213.562V471.875ZM214.812 470.875V472H216.812V470.875H214.812ZM215.812 471H212.438V473H215.812V471ZM213.438 472V470.875H211.438V472H213.438ZM212.438 469.875H211.312V471.875H212.438V469.875ZM212.312 470.875V465.25H210.312V470.875H212.312ZM211.312 464.25H210.188V466.25H211.312V464.25ZM211.188 465.25V464.125H209.188V465.25H211.188ZM210.188 465.125H211.312V463.125H210.188V465.125ZM212.312 464.125V463H210.312V464.125H212.312ZM222.562 465.25H223.562V464.25H222.562V465.25ZM220.312 465.25V464.25H219.312V465.25H220.312ZM220.312 467.5H219.312V468.5H220.312V467.5ZM222.562 467.5V468.5H223.562V467.5H222.562ZM219.188 464.125V463.125H218.188V464.125H219.188ZM223.688 464.125H224.688V463.125H223.688V464.125ZM223.688 465.25H222.688V466.25H223.688V465.25ZM224.812 465.25H225.812V464.25H224.812V465.25ZM224.812 468.625V469.625H225.812V468.625H224.812ZM220.312 468.625V467.625H219.312V468.625H220.312ZM220.312 470.875H219.312V471.875H220.312V470.875ZM222.562 470.875V471.875H223.562V470.875H222.562ZM222.562 469.75V468.75H221.562V469.75H222.562ZM224.812 469.75H225.812V468.75H224.812V469.75ZM224.812 470.875V471.875H225.812V470.875H224.812ZM223.688 470.875V469.875H222.688V470.875H223.688ZM223.688 472V473H224.688V472H223.688ZM219.188 472H218.188V473H219.188V472ZM219.188 470.875H220.188V469.875H219.188V470.875ZM218.062 470.875H217.062V471.875H218.062V470.875ZM218.062 465.25V464.25H217.062V465.25H218.062ZM219.188 465.25V466.25H220.188V465.25H219.188ZM222.562 464.25H220.312V466.25H222.562V464.25ZM219.312 465.25V467.5H221.312V465.25H219.312ZM220.312 468.5H222.562V466.5H220.312V468.5ZM223.562 467.5V465.25H221.562V467.5H223.562ZM219.188 465.125H223.688V463.125H219.188V465.125ZM222.688 464.125V465.25H224.688V464.125H222.688ZM223.688 466.25H224.812V464.25H223.688V466.25ZM223.812 465.25V468.625H225.812V465.25H223.812ZM224.812 467.625H220.312V469.625H224.812V467.625ZM219.312 468.625V470.875H221.312V468.625H219.312ZM220.312 471.875H222.562V469.875H220.312V471.875ZM223.562 470.875V469.75H221.562V470.875H223.562ZM222.562 470.75H224.812V468.75H222.562V470.75ZM223.812 469.75V470.875H225.812V469.75H223.812ZM224.812 469.875H223.688V471.875H224.812V469.875ZM222.688 470.875V472H224.688V470.875H222.688ZM223.688 471H219.188V473H223.688V471ZM220.188 472V470.875H218.188V472H220.188ZM219.188 469.875H218.062V471.875H219.188V469.875ZM219.062 470.875V465.25H217.062V470.875H219.062ZM218.062 466.25H219.188V464.25H218.062V466.25ZM220.188 465.25V464.125H218.188V465.25H220.188ZM227.062 464.125V463.125H226.062V464.125H227.062ZM229.312 464.125H230.312V463.125H229.312V464.125ZM229.312 466.375H228.312V467.375H229.312V466.375ZM230.438 466.375H231.438V465.375H230.438V466.375ZM230.438 467.5V468.5H231.438V467.5H230.438ZM229.312 467.5V466.5H228.312V467.5H229.312ZM229.312 472V473H230.312V472H229.312ZM227.062 472H226.062V473H227.062V472ZM231.562 464.125V463.125H230.562V464.125H231.562ZM233.812 464.125H234.812V463.125H233.812V464.125ZM233.812 466.375V467.375H234.812V466.375H233.812ZM230.438 466.375H229.438V467.375H230.438V466.375ZM230.438 465.25V464.25H229.438V465.25H230.438ZM231.562 465.25V466.25H232.562V465.25H231.562ZM227.062 465.125H229.312V463.125H227.062V465.125ZM228.312 464.125V466.375H230.312V464.125H228.312ZM229.312 467.375H230.438V465.375H229.312V467.375ZM229.438 466.375V467.5H231.438V466.375H229.438ZM230.438 466.5H229.312V468.5H230.438V466.5ZM228.312 467.5V472H230.312V467.5H228.312ZM229.312 471H227.062V473H229.312V471ZM228.062 472V464.125H226.062V472H228.062ZM231.562 465.125H233.812V463.125H231.562V465.125ZM232.812 464.125V466.375H234.812V464.125H232.812ZM233.812 465.375H230.438V467.375H233.812V465.375ZM231.438 466.375V465.25H229.438V466.375H231.438ZM230.438 466.25H231.562V464.25H230.438V466.25ZM232.562 465.25V464.125H230.562V465.25H232.562ZM237.188 470.875V469.875H236.188V470.875H237.188ZM239.438 470.875H240.438V469.875H239.438V470.875ZM239.438 473.125V474.125H240.438V473.125H239.438ZM238.312 473.125V472.125H237.312V473.125H238.312ZM238.312 474.25V475.25H239.312V474.25H238.312ZM236.062 474.25H235.062V475.25H236.062V474.25ZM236.062 473.125V472.125H235.062V473.125H236.062ZM237.188 473.125V474.125H238.188V473.125H237.188ZM237.188 471.875H239.438V469.875H237.188V471.875ZM238.438 470.875V473.125H240.438V470.875H238.438ZM239.438 472.125H238.312V474.125H239.438V472.125ZM237.312 473.125V474.25H239.312V473.125H237.312ZM238.312 473.25H236.062V475.25H238.312V473.25ZM237.062 474.25V473.125H235.062V474.25H237.062ZM236.062 474.125H237.188V472.125H236.062V474.125ZM238.188 473.125V470.875H236.188V473.125H238.188ZM248.438 464.125V463.125H247.438V464.125H248.438ZM252.938 464.125H253.938V463.125H252.938V464.125ZM252.938 465.25H251.938V466.25H252.938V465.25ZM254.062 465.25H255.062V464.25H254.062V465.25ZM254.062 470.875V471.875H255.062V470.875H254.062ZM252.938 470.875V469.875H251.938V470.875H252.938ZM252.938 472V473H253.938V472H252.938ZM248.438 472H247.438V473H248.438V472ZM248.438 470.875H249.438V469.875H248.438V470.875ZM247.312 470.875H246.312V471.875H247.312V470.875ZM247.312 465.25V464.25H246.312V465.25H247.312ZM248.438 465.25V466.25H249.438V465.25H248.438ZM251.812 465.25H252.812V464.25H251.812V465.25ZM249.562 465.25V464.25H248.562V465.25H249.562ZM249.562 470.875H248.562V471.875H249.562V470.875ZM251.812 470.875V471.875H252.812V470.875H251.812ZM248.438 465.125H252.938V463.125H248.438V465.125ZM251.938 464.125V465.25H253.938V464.125H251.938ZM252.938 466.25H254.062V464.25H252.938V466.25ZM253.062 465.25V470.875H255.062V465.25H253.062ZM254.062 469.875H252.938V471.875H254.062V469.875ZM251.938 470.875V472H253.938V470.875H251.938ZM252.938 471H248.438V473H252.938V471ZM249.438 472V470.875H247.438V472H249.438ZM248.438 469.875H247.312V471.875H248.438V469.875ZM248.312 470.875V465.25H246.312V470.875H248.312ZM247.312 466.25H248.438V464.25H247.312V466.25ZM249.438 465.25V464.125H247.438V465.25H249.438ZM251.812 464.25H249.562V466.25H251.812V464.25ZM248.562 465.25V470.875H250.562V465.25H248.562ZM249.562 471.875H251.812V469.875H249.562V471.875ZM252.812 470.875V465.25H250.812V470.875H252.812ZM256.312 464.125V463.125H255.312V464.125H256.312ZM258.562 464.125H259.562V463.125H258.562V464.125ZM258.562 466.375H257.562V467.375H258.562V466.375ZM259.688 466.375H260.688V465.375H259.688V466.375ZM259.688 467.5V468.5H260.688V467.5H259.688ZM258.562 467.5V466.5H257.562V467.5H258.562ZM258.562 472V473H259.562V472H258.562ZM256.312 472H255.312V473H256.312V472ZM260.812 464.125V463.125H259.812V464.125H260.812ZM263.062 464.125H264.062V463.125H263.062V464.125ZM263.062 466.375V467.375H264.062V466.375H263.062ZM259.688 466.375H258.688V467.375H259.688V466.375ZM259.688 465.25V464.25H258.688V465.25H259.688ZM260.812 465.25V466.25H261.812V465.25H260.812ZM256.312 465.125H258.562V463.125H256.312V465.125ZM257.562 464.125V466.375H259.562V464.125H257.562ZM258.562 467.375H259.688V465.375H258.562V467.375ZM258.688 466.375V467.5H260.688V466.375H258.688ZM259.688 466.5H258.562V468.5H259.688V466.5ZM257.562 467.5V472H259.562V467.5H257.562ZM258.562 471H256.312V473H258.562V471ZM257.312 472V464.125H255.312V472H257.312ZM260.812 465.125H263.062V463.125H260.812V465.125ZM262.062 464.125V466.375H264.062V464.125H262.062ZM263.062 465.375H259.688V467.375H263.062V465.375ZM260.688 466.375V465.25H258.688V466.375H260.688ZM259.688 466.25H260.812V464.25H259.688V466.25ZM261.812 465.25V464.125H259.812V465.25H261.812ZM270.938 464.125V463.125H269.938V464.125H270.938ZM275.438 464.125H276.438V463.125H275.438V464.125ZM275.438 465.25H274.438V466.25H275.438V465.25ZM276.562 465.25H277.562V464.25H276.562V465.25ZM276.562 466.375V467.375H277.562V466.375H276.562ZM274.312 466.375H273.312V467.375H274.312V466.375ZM274.312 465.25H275.312V464.25H274.312V465.25ZM272.062 465.25V464.25H271.062V465.25H272.062ZM272.062 470.875H271.062V471.875H272.062V470.875ZM274.312 470.875V471.875H275.312V470.875H274.312ZM274.312 469.75V468.75H273.312V469.75H274.312ZM276.562 469.75H277.562V468.75H276.562V469.75ZM276.562 470.875V471.875H277.562V470.875H276.562ZM275.438 470.875V469.875H274.438V470.875H275.438ZM275.438 472V473H276.438V472H275.438ZM270.938 472H269.938V473H270.938V472ZM270.938 470.875H271.938V469.875H270.938V470.875ZM269.812 470.875H268.812V471.875H269.812V470.875ZM269.812 465.25V464.25H268.812V465.25H269.812ZM270.938 465.25V466.25H271.938V465.25H270.938ZM270.938 465.125H275.438V463.125H270.938V465.125ZM274.438 464.125V465.25H276.438V464.125H274.438ZM275.438 466.25H276.562V464.25H275.438V466.25ZM275.562 465.25V466.375H277.562V465.25H275.562ZM276.562 465.375H274.312V467.375H276.562V465.375ZM275.312 466.375V465.25H273.312V466.375H275.312ZM274.312 464.25H272.062V466.25H274.312V464.25ZM271.062 465.25V470.875H273.062V465.25H271.062ZM272.062 471.875H274.312V469.875H272.062V471.875ZM275.312 470.875V469.75H273.312V470.875H275.312ZM274.312 470.75H276.562V468.75H274.312V470.75ZM275.562 469.75V470.875H277.562V469.75H275.562ZM276.562 469.875H275.438V471.875H276.562V469.875ZM274.438 470.875V472H276.438V470.875H274.438ZM275.438 471H270.938V473H275.438V471ZM271.938 472V470.875H269.938V472H271.938ZM270.938 469.875H269.812V471.875H270.938V469.875ZM270.812 470.875V465.25H268.812V470.875H270.812ZM269.812 466.25H270.938V464.25H269.812V466.25ZM271.938 465.25V464.125H269.938V465.25H271.938ZM279.938 461.875V460.875H278.938V461.875H279.938ZM282.188 461.875H283.188V460.875H282.188V461.875ZM282.188 470.875H281.188V471.875H282.188V470.875ZM283.312 470.875H284.312V469.875H283.312V470.875ZM283.312 472V473H284.312V472H283.312ZM281.062 472H280.062V473H281.062V472ZM281.062 470.875H282.062V469.875H281.062V470.875ZM279.938 470.875H278.938V471.875H279.938V470.875ZM279.938 462.875H282.188V460.875H279.938V462.875ZM281.188 461.875V470.875H283.188V461.875H281.188ZM282.188 471.875H283.312V469.875H282.188V471.875ZM282.312 470.875V472H284.312V470.875H282.312ZM283.312 471H281.062V473H283.312V471ZM282.062 472V470.875H280.062V472H282.062ZM281.062 469.875H279.938V471.875H281.062V469.875ZM280.938 470.875V461.875H278.938V470.875H280.938ZM286.688 464.125V463.125H285.688V464.125H286.688ZM288.938 464.125H289.938V463.125H288.938V464.125ZM288.938 472V473H289.938V472H288.938ZM286.688 472H285.688V473H286.688V472ZM286.688 461.875V460.875H285.688V461.875H286.688ZM288.938 461.875H289.938V460.875H288.938V461.875ZM288.938 463V464H289.938V463H288.938ZM286.688 463H285.688V464H286.688V463ZM286.688 465.125H288.938V463.125H286.688V465.125ZM287.938 464.125V472H289.938V464.125H287.938ZM288.938 471H286.688V473H288.938V471ZM287.688 472V464.125H285.688V472H287.688ZM286.688 462.875H288.938V460.875H286.688V462.875ZM287.938 461.875V463H289.938V461.875H287.938ZM288.938 462H286.688V464H288.938V462ZM287.688 463V461.875H285.688V463H287.688ZM293.438 464.125V463.125H292.438V464.125H293.438ZM297.938 464.125H298.938V463.125H297.938V464.125ZM297.938 465.25H296.938V466.25H297.938V465.25ZM299.062 465.25H300.062V464.25H299.062V465.25ZM299.062 466.375V467.375H300.062V466.375H299.062ZM296.812 466.375H295.812V467.375H296.812V466.375ZM296.812 465.25H297.812V464.25H296.812V465.25ZM294.562 465.25V464.25H293.562V465.25H294.562ZM294.562 470.875H293.562V471.875H294.562V470.875ZM296.812 470.875V471.875H297.812V470.875H296.812ZM296.812 469.75V468.75H295.812V469.75H296.812ZM299.062 469.75H300.062V468.75H299.062V469.75ZM299.062 470.875V471.875H300.062V470.875H299.062ZM297.938 470.875V469.875H296.938V470.875H297.938ZM297.938 472V473H298.938V472H297.938ZM293.438 472H292.438V473H293.438V472ZM293.438 470.875H294.438V469.875H293.438V470.875ZM292.312 470.875H291.312V471.875H292.312V470.875ZM292.312 465.25V464.25H291.312V465.25H292.312ZM293.438 465.25V466.25H294.438V465.25H293.438ZM293.438 465.125H297.938V463.125H293.438V465.125ZM296.938 464.125V465.25H298.938V464.125H296.938ZM297.938 466.25H299.062V464.25H297.938V466.25ZM298.062 465.25V466.375H300.062V465.25H298.062ZM299.062 465.375H296.812V467.375H299.062V465.375ZM297.812 466.375V465.25H295.812V466.375H297.812ZM296.812 464.25H294.562V466.25H296.812V464.25ZM293.562 465.25V470.875H295.562V465.25H293.562ZM294.562 471.875H296.812V469.875H294.562V471.875ZM297.812 470.875V469.75H295.812V470.875H297.812ZM296.812 470.75H299.062V468.75H296.812V470.75ZM298.062 469.75V470.875H300.062V469.75H298.062ZM299.062 469.875H297.938V471.875H299.062V469.875ZM296.938 470.875V472H298.938V470.875H296.938ZM297.938 471H293.438V473H297.938V471ZM294.438 472V470.875H292.438V472H294.438ZM293.438 469.875H292.312V471.875H293.438V469.875ZM293.312 470.875V465.25H291.312V470.875H293.312ZM292.312 466.25H293.438V464.25H292.312V466.25ZM294.438 465.25V464.125H292.438V465.25H294.438ZM301.312 461.875V460.875H300.312V461.875H301.312ZM303.562 461.875H304.562V460.875H303.562V461.875ZM303.562 466.375H302.562V467.375H303.562V466.375ZM304.688 466.375V467.375H305.688V466.375H304.688ZM304.688 465.25V464.25H303.688V465.25H304.688ZM305.812 465.25V466.25H306.812V465.25H305.812ZM305.812 464.125V463.125H304.812V464.125H305.812ZM308.062 464.125H309.062V463.125H308.062V464.125ZM308.062 465.25V466.25H309.062V465.25H308.062ZM306.938 465.25V464.25H305.938V465.25H306.938ZM306.938 466.375V467.375H307.938V466.375H306.938ZM305.812 466.375V465.375H304.812V466.375H305.812ZM305.812 467.5V468.5H306.812V467.5H305.812ZM304.688 467.5V466.5H303.688V467.5H304.688ZM304.688 468.625H303.688V469.625H304.688V468.625ZM305.812 468.625H306.812V467.625H305.812V468.625ZM305.812 469.75H304.812V470.75H305.812V469.75ZM306.938 469.75H307.938V468.75H306.938V469.75ZM306.938 470.875H305.938V471.875H306.938V470.875ZM308.062 470.875H309.062V469.875H308.062V470.875ZM308.062 472V473H309.062V472H308.062ZM305.812 472H304.812V473H305.812V472ZM305.812 470.875H306.812V469.875H305.812V470.875ZM304.688 470.875H303.688V471.875H304.688V470.875ZM304.688 469.75H305.688V468.75H304.688V469.75ZM303.562 469.75V468.75H302.562V469.75H303.562ZM303.562 472V473H304.562V472H303.562ZM301.312 472H300.312V473H301.312V472ZM301.312 462.875H303.562V460.875H301.312V462.875ZM302.562 461.875V466.375H304.562V461.875H302.562ZM303.562 467.375H304.688V465.375H303.562V467.375ZM305.688 466.375V465.25H303.688V466.375H305.688ZM304.688 466.25H305.812V464.25H304.688V466.25ZM306.812 465.25V464.125H304.812V465.25H306.812ZM305.812 465.125H308.062V463.125H305.812V465.125ZM307.062 464.125V465.25H309.062V464.125H307.062ZM308.062 464.25H306.938V466.25H308.062V464.25ZM305.938 465.25V466.375H307.938V465.25H305.938ZM306.938 465.375H305.812V467.375H306.938V465.375ZM304.812 466.375V467.5H306.812V466.375H304.812ZM305.812 466.5H304.688V468.5H305.812V466.5ZM303.688 467.5V468.625H305.688V467.5H303.688ZM304.688 469.625H305.812V467.625H304.688V469.625ZM304.812 468.625V469.75H306.812V468.625H304.812ZM305.812 470.75H306.938V468.75H305.812V470.75ZM305.938 469.75V470.875H307.938V469.75H305.938ZM306.938 471.875H308.062V469.875H306.938V471.875ZM307.062 470.875V472H309.062V470.875H307.062ZM308.062 471H305.812V473H308.062V471ZM306.812 472V470.875H304.812V472H306.812ZM305.812 469.875H304.688V471.875H305.812V469.875ZM305.688 470.875V469.75H303.688V470.875H305.688ZM304.688 468.75H303.562V470.75H304.688V468.75ZM302.562 469.75V472H304.562V469.75H302.562ZM303.562 471H301.312V473H303.562V471ZM302.312 472V461.875H300.312V472H302.312ZM130.312 482V481H129.312V482H130.312ZM132.562 482H133.562V481H132.562V482ZM132.562 483.125H131.562V484.125H132.562V483.125ZM134.812 483.125H135.812V482.125H134.812V483.125ZM134.812 484.25V485.25H135.812V484.25H134.812ZM132.562 484.25V483.25H131.562V484.25H132.562ZM132.562 489.875H131.562V490.875H132.562V489.875ZM134.812 489.875H135.812V488.875H134.812V489.875ZM134.812 491V492H135.812V491H134.812ZM131.438 491H130.438V492H131.438V491ZM131.438 489.875H132.438V488.875H131.438V489.875ZM130.312 489.875H129.312V490.875H130.312V489.875ZM130.312 484.25H131.312V483.25H130.312V484.25ZM129.188 484.25H128.188V485.25H129.188V484.25ZM129.188 483.125V482.125H128.188V483.125H129.188ZM130.312 483.125V484.125H131.312V483.125H130.312ZM130.312 483H132.562V481H130.312V483ZM131.562 482V483.125H133.562V482H131.562ZM132.562 484.125H134.812V482.125H132.562V484.125ZM133.812 483.125V484.25H135.812V483.125H133.812ZM134.812 483.25H132.562V485.25H134.812V483.25ZM131.562 484.25V489.875H133.562V484.25H131.562ZM132.562 490.875H134.812V488.875H132.562V490.875ZM133.812 489.875V491H135.812V489.875H133.812ZM134.812 490H131.438V492H134.812V490ZM132.438 491V489.875H130.438V491H132.438ZM131.438 488.875H130.312V490.875H131.438V488.875ZM131.312 489.875V484.25H129.312V489.875H131.312ZM130.312 483.25H129.188V485.25H130.312V483.25ZM130.188 484.25V483.125H128.188V484.25H130.188ZM129.188 484.125H130.312V482.125H129.188V484.125ZM131.312 483.125V482H129.312V483.125H131.312ZM138.188 483.125V482.125H137.188V483.125H138.188ZM142.688 483.125H143.688V482.125H142.688V483.125ZM142.688 484.25H141.688V485.25H142.688V484.25ZM143.812 484.25H144.812V483.25H143.812V484.25ZM143.812 489.875V490.875H144.812V489.875H143.812ZM142.688 489.875V488.875H141.688V489.875H142.688ZM142.688 491V492H143.688V491H142.688ZM138.188 491H137.188V492H138.188V491ZM138.188 489.875H139.188V488.875H138.188V489.875ZM137.062 489.875H136.062V490.875H137.062V489.875ZM137.062 484.25V483.25H136.062V484.25H137.062ZM138.188 484.25V485.25H139.188V484.25H138.188ZM141.562 484.25H142.562V483.25H141.562V484.25ZM139.312 484.25V483.25H138.312V484.25H139.312ZM139.312 489.875H138.312V490.875H139.312V489.875ZM141.562 489.875V490.875H142.562V489.875H141.562ZM138.188 484.125H142.688V482.125H138.188V484.125ZM141.688 483.125V484.25H143.688V483.125H141.688ZM142.688 485.25H143.812V483.25H142.688V485.25ZM142.812 484.25V489.875H144.812V484.25H142.812ZM143.812 488.875H142.688V490.875H143.812V488.875ZM141.688 489.875V491H143.688V489.875H141.688ZM142.688 490H138.188V492H142.688V490ZM139.188 491V489.875H137.188V491H139.188ZM138.188 488.875H137.062V490.875H138.188V488.875ZM138.062 489.875V484.25H136.062V489.875H138.062ZM137.062 485.25H138.188V483.25H137.062V485.25ZM139.188 484.25V483.125H137.188V484.25H139.188ZM141.562 483.25H139.312V485.25H141.562V483.25ZM138.312 484.25V489.875H140.312V484.25H138.312ZM139.312 490.875H141.562V488.875H139.312V490.875ZM142.562 489.875V484.25H140.562V489.875H142.562ZM152.812 480.875V479.875H151.812V480.875H152.812ZM156.188 480.875H157.188V479.875H156.188V480.875ZM156.188 482V483H157.188V482H156.188ZM153.938 482V481H152.938V482H153.938ZM153.938 484.25H152.938V485.25H153.938V484.25ZM156.188 484.25H157.188V483.25H156.188V484.25ZM156.188 485.375V486.375H157.188V485.375H156.188ZM153.938 485.375V484.375H152.938V485.375H153.938ZM153.938 491V492H154.938V491H153.938ZM151.688 491H150.688V492H151.688V491ZM151.688 485.375H152.688V484.375H151.688V485.375ZM150.562 485.375H149.562V486.375H150.562V485.375ZM150.562 484.25V483.25H149.562V484.25H150.562ZM151.688 484.25V485.25H152.688V484.25H151.688ZM151.688 482V481H150.688V482H151.688ZM152.812 482V483H153.812V482H152.812ZM152.812 481.875H156.188V479.875H152.812V481.875ZM155.188 480.875V482H157.188V480.875H155.188ZM156.188 481H153.938V483H156.188V481ZM152.938 482V484.25H154.938V482H152.938ZM153.938 485.25H156.188V483.25H153.938V485.25ZM155.188 484.25V485.375H157.188V484.25H155.188ZM156.188 484.375H153.938V486.375H156.188V484.375ZM152.938 485.375V491H154.938V485.375H152.938ZM153.938 490H151.688V492H153.938V490ZM152.688 491V485.375H150.688V491H152.688ZM151.688 484.375H150.562V486.375H151.688V484.375ZM151.562 485.375V484.25H149.562V485.375H151.562ZM150.562 485.25H151.688V483.25H150.562V485.25ZM152.688 484.25V482H150.688V484.25H152.688ZM151.688 483H152.812V481H151.688V483ZM153.812 482V480.875H151.812V482H153.812ZM159.562 480.875V479.875H158.562V480.875H159.562ZM161.812 480.875H162.812V479.875H161.812V480.875ZM161.812 489.875H160.812V490.875H161.812V489.875ZM162.938 489.875H163.938V488.875H162.938V489.875ZM162.938 491V492H163.938V491H162.938ZM160.688 491H159.688V492H160.688V491ZM160.688 489.875H161.688V488.875H160.688V489.875ZM159.562 489.875H158.562V490.875H159.562V489.875ZM159.562 481.875H161.812V479.875H159.562V481.875ZM160.812 480.875V489.875H162.812V480.875H160.812ZM161.812 490.875H162.938V488.875H161.812V490.875ZM161.938 489.875V491H163.938V489.875H161.938ZM162.938 490H160.688V492H162.938V490ZM161.688 491V489.875H159.688V491H161.688ZM160.688 488.875H159.562V490.875H160.688V488.875ZM160.562 489.875V480.875H158.562V489.875H160.562ZM169.688 487.625H170.688V486.625H169.688V487.625ZM167.438 487.625V486.625H166.438V487.625H167.438ZM167.438 489.875H166.438V490.875H167.438V489.875ZM169.688 489.875V490.875H170.688V489.875H169.688ZM166.312 483.125V482.125H165.312V483.125H166.312ZM170.812 483.125H171.812V482.125H170.812V483.125ZM170.812 484.25H169.812V485.25H170.812V484.25ZM171.938 484.25H172.938V483.25H171.938V484.25ZM171.938 491V492H172.938V491H171.938ZM166.312 491H165.312V492H166.312V491ZM166.312 489.875H167.312V488.875H166.312V489.875ZM165.188 489.875H164.188V490.875H165.188V489.875ZM165.188 487.625V486.625H164.188V487.625H165.188ZM166.312 487.625V488.625H167.312V487.625H166.312ZM166.312 486.5V485.5H165.312V486.5H166.312ZM169.688 486.5V487.5H170.688V486.5H169.688ZM169.688 484.25H170.688V483.25H169.688V484.25ZM167.438 484.25V483.25H166.438V484.25H167.438ZM167.438 485.375V486.375H168.438V485.375H167.438ZM165.188 485.375H164.188V486.375H165.188V485.375ZM165.188 484.25V483.25H164.188V484.25H165.188ZM166.312 484.25V485.25H167.312V484.25H166.312ZM169.688 486.625H167.438V488.625H169.688V486.625ZM166.438 487.625V489.875H168.438V487.625H166.438ZM167.438 490.875H169.688V488.875H167.438V490.875ZM170.688 489.875V487.625H168.688V489.875H170.688ZM166.312 484.125H170.812V482.125H166.312V484.125ZM169.812 483.125V484.25H171.812V483.125H169.812ZM170.812 485.25H171.938V483.25H170.812V485.25ZM170.938 484.25V491H172.938V484.25H170.938ZM171.938 490H166.312V492H171.938V490ZM167.312 491V489.875H165.312V491H167.312ZM166.312 488.875H165.188V490.875H166.312V488.875ZM166.188 489.875V487.625H164.188V489.875H166.188ZM165.188 488.625H166.312V486.625H165.188V488.625ZM167.312 487.625V486.5H165.312V487.625H167.312ZM166.312 487.5H169.688V485.5H166.312V487.5ZM170.688 486.5V484.25H168.688V486.5H170.688ZM169.688 483.25H167.438V485.25H169.688V483.25ZM166.438 484.25V485.375H168.438V484.25H166.438ZM167.438 484.375H165.188V486.375H167.438V484.375ZM166.188 485.375V484.25H164.188V485.375H166.188ZM165.188 485.25H166.312V483.25H165.188V485.25ZM167.312 484.25V483.125H165.312V484.25H167.312ZM174.188 483.125V482.125H173.188V483.125H174.188ZM179.812 483.125H180.812V482.125H179.812V483.125ZM179.812 484.25H178.812V485.25H179.812V484.25ZM180.938 484.25H181.938V483.25H180.938V484.25ZM180.938 489.875V490.875H181.938V489.875H180.938ZM179.812 489.875V488.875H178.812V489.875H179.812ZM179.812 491V492H180.812V491H179.812ZM176.438 491V490H175.438V491H176.438ZM176.438 493.25V494.25H177.438V493.25H176.438ZM174.188 493.25H173.188V494.25H174.188V493.25ZM178.688 484.25H179.688V483.25H178.688V484.25ZM176.438 484.25V483.25H175.438V484.25H176.438ZM176.438 489.875H175.438V490.875H176.438V489.875ZM178.688 489.875V490.875H179.688V489.875H178.688ZM174.188 484.125H179.812V482.125H174.188V484.125ZM178.812 483.125V484.25H180.812V483.125H178.812ZM179.812 485.25H180.938V483.25H179.812V485.25ZM179.938 484.25V489.875H181.938V484.25H179.938ZM180.938 488.875H179.812V490.875H180.938V488.875ZM178.812 489.875V491H180.812V489.875H178.812ZM179.812 490H176.438V492H179.812V490ZM175.438 491V493.25H177.438V491H175.438ZM176.438 492.25H174.188V494.25H176.438V492.25ZM175.188 493.25V483.125H173.188V493.25H175.188ZM178.688 483.25H176.438V485.25H178.688V483.25ZM175.438 484.25V489.875H177.438V484.25H175.438ZM176.438 490.875H178.688V488.875H176.438V490.875ZM179.688 489.875V484.25H177.688V489.875H179.688ZM187.688 483.125V482.125H186.688V483.125H187.688ZM189.938 483.125H190.938V482.125H189.938V483.125ZM189.938 488.75H188.938V489.75H189.938V488.75ZM192.188 488.75V489.75H193.188V488.75H192.188ZM192.188 483.125V482.125H191.188V483.125H192.188ZM194.438 483.125H195.438V482.125H194.438V483.125ZM194.438 492.125V493.125H195.438V492.125H194.438ZM193.312 492.125V491.125H192.312V492.125H193.312ZM193.312 493.25V494.25H194.312V493.25H193.312ZM188.812 493.25H187.812V494.25H188.812V493.25ZM188.812 492.125H189.812V491.125H188.812V492.125ZM187.688 492.125H186.688V493.125H187.688V492.125ZM187.688 491V490H186.688V491H187.688ZM189.938 491H190.938V490H189.938V491ZM189.938 492.125H188.938V493.125H189.938V492.125ZM192.188 492.125V493.125H193.188V492.125H192.188ZM192.188 489.875H193.188V488.875H192.188V489.875ZM188.812 489.875H187.812V490.875H188.812V489.875ZM188.812 488.75H189.812V487.75H188.812V488.75ZM187.688 488.75H186.688V489.75H187.688V488.75ZM187.688 484.125H189.938V482.125H187.688V484.125ZM188.938 483.125V488.75H190.938V483.125H188.938ZM189.938 489.75H192.188V487.75H189.938V489.75ZM193.188 488.75V483.125H191.188V488.75H193.188ZM192.188 484.125H194.438V482.125H192.188V484.125ZM193.438 483.125V492.125H195.438V483.125H193.438ZM194.438 491.125H193.312V493.125H194.438V491.125ZM192.312 492.125V493.25H194.312V492.125H192.312ZM193.312 492.25H188.812V494.25H193.312V492.25ZM189.812 493.25V492.125H187.812V493.25H189.812ZM188.812 491.125H187.688V493.125H188.812V491.125ZM188.688 492.125V491H186.688V492.125H188.688ZM187.688 492H189.938V490H187.688V492ZM188.938 491V492.125H190.938V491H188.938ZM189.938 493.125H192.188V491.125H189.938V493.125ZM193.188 492.125V489.875H191.188V492.125H193.188ZM192.188 488.875H188.812V490.875H192.188V488.875ZM189.812 489.875V488.75H187.812V489.875H189.812ZM188.812 487.75H187.688V489.75H188.812V487.75ZM188.688 488.75V483.125H186.688V488.75H188.688ZM197.812 483.125V482.125H196.812V483.125H197.812ZM202.312 483.125H203.312V482.125H202.312V483.125ZM202.312 484.25H201.312V485.25H202.312V484.25ZM203.438 484.25H204.438V483.25H203.438V484.25ZM203.438 489.875V490.875H204.438V489.875H203.438ZM202.312 489.875V488.875H201.312V489.875H202.312ZM202.312 491V492H203.312V491H202.312ZM197.812 491H196.812V492H197.812V491ZM197.812 489.875H198.812V488.875H197.812V489.875ZM196.688 489.875H195.688V490.875H196.688V489.875ZM196.688 484.25V483.25H195.688V484.25H196.688ZM197.812 484.25V485.25H198.812V484.25H197.812ZM201.188 484.25H202.188V483.25H201.188V484.25ZM198.938 484.25V483.25H197.938V484.25H198.938ZM198.938 489.875H197.938V490.875H198.938V489.875ZM201.188 489.875V490.875H202.188V489.875H201.188ZM197.812 484.125H202.312V482.125H197.812V484.125ZM201.312 483.125V484.25H203.312V483.125H201.312ZM202.312 485.25H203.438V483.25H202.312V485.25ZM202.438 484.25V489.875H204.438V484.25H202.438ZM203.438 488.875H202.312V490.875H203.438V488.875ZM201.312 489.875V491H203.312V489.875H201.312ZM202.312 490H197.812V492H202.312V490ZM198.812 491V489.875H196.812V491H198.812ZM197.812 488.875H196.688V490.875H197.812V488.875ZM197.688 489.875V484.25H195.688V489.875H197.688ZM196.688 485.25H197.812V483.25H196.688V485.25ZM198.812 484.25V483.125H196.812V484.25H198.812ZM201.188 483.25H198.938V485.25H201.188V483.25ZM197.938 484.25V489.875H199.938V484.25H197.938ZM198.938 490.875H201.188V488.875H198.938V490.875ZM202.188 489.875V484.25H200.188V489.875H202.188ZM205.688 483.125V482.125H204.688V483.125H205.688ZM207.938 483.125H208.938V482.125H207.938V483.125ZM207.938 489.875H206.938V490.875H207.938V489.875ZM210.188 489.875V490.875H211.188V489.875H210.188ZM210.188 483.125V482.125H209.188V483.125H210.188ZM212.438 483.125H213.438V482.125H212.438V483.125ZM212.438 489.875V490.875H213.438V489.875H212.438ZM211.312 489.875V488.875H210.312V489.875H211.312ZM211.312 491V492H212.312V491H211.312ZM206.812 491H205.812V492H206.812V491ZM206.812 489.875H207.812V488.875H206.812V489.875ZM205.688 489.875H204.688V490.875H205.688V489.875ZM205.688 484.125H207.938V482.125H205.688V484.125ZM206.938 483.125V489.875H208.938V483.125H206.938ZM207.938 490.875H210.188V488.875H207.938V490.875ZM211.188 489.875V483.125H209.188V489.875H211.188ZM210.188 484.125H212.438V482.125H210.188V484.125ZM211.438 483.125V489.875H213.438V483.125H211.438ZM212.438 488.875H211.312V490.875H212.438V488.875ZM210.312 489.875V491H212.312V489.875H210.312ZM211.312 490H206.812V492H211.312V490ZM207.812 491V489.875H205.812V491H207.812ZM206.812 488.875H205.688V490.875H206.812V488.875ZM206.688 489.875V483.125H204.688V489.875H206.688ZM214.688 483.125V482.125H213.688V483.125H214.688ZM216.938 483.125H217.938V482.125H216.938V483.125ZM216.938 485.375H215.938V486.375H216.938V485.375ZM218.062 485.375H219.062V484.375H218.062V485.375ZM218.062 486.5V487.5H219.062V486.5H218.062ZM216.938 486.5V485.5H215.938V486.5H216.938ZM216.938 491V492H217.938V491H216.938ZM214.688 491H213.688V492H214.688V491ZM219.188 483.125V482.125H218.188V483.125H219.188ZM221.438 483.125H222.438V482.125H221.438V483.125ZM221.438 485.375V486.375H222.438V485.375H221.438ZM218.062 485.375H217.062V486.375H218.062V485.375ZM218.062 484.25V483.25H217.062V484.25H218.062ZM219.188 484.25V485.25H220.188V484.25H219.188ZM214.688 484.125H216.938V482.125H214.688V484.125ZM215.938 483.125V485.375H217.938V483.125H215.938ZM216.938 486.375H218.062V484.375H216.938V486.375ZM217.062 485.375V486.5H219.062V485.375H217.062ZM218.062 485.5H216.938V487.5H218.062V485.5ZM215.938 486.5V491H217.938V486.5H215.938ZM216.938 490H214.688V492H216.938V490ZM215.688 491V483.125H213.688V491H215.688ZM219.188 484.125H221.438V482.125H219.188V484.125ZM220.438 483.125V485.375H222.438V483.125H220.438ZM221.438 484.375H218.062V486.375H221.438V484.375ZM219.062 485.375V484.25H217.062V485.375H219.062ZM218.062 485.25H219.188V483.25H218.062V485.25ZM220.188 484.25V483.125H218.188V484.25H220.188ZM228.188 483.125V482.125H227.188V483.125H228.188ZM230.438 483.125H231.438V482.125H230.438V483.125ZM230.438 489.875H229.438V490.875H230.438V489.875ZM231.562 489.875H232.562V488.875H231.562V489.875ZM231.562 491V492H232.562V491H231.562ZM229.312 491H228.312V492H229.312V491ZM229.312 489.875H230.312V488.875H229.312V489.875ZM228.188 489.875H227.188V490.875H228.188V489.875ZM231.562 485.375V484.375H230.562V485.375H231.562ZM232.688 485.375H233.688V484.375H232.688V485.375ZM232.688 489.875V490.875H233.688V489.875H232.688ZM231.562 489.875H230.562V490.875H231.562V489.875ZM233.812 483.125V482.125H232.812V483.125H233.812ZM236.062 483.125H237.062V482.125H236.062V483.125ZM236.062 489.875V490.875H237.062V489.875H236.062ZM234.938 489.875V488.875H233.938V489.875H234.938ZM234.938 491V492H235.938V491H234.938ZM232.688 491H231.688V492H232.688V491ZM232.688 489.875V488.875H231.688V489.875H232.688ZM233.812 489.875V490.875H234.812V489.875H233.812ZM228.188 484.125H230.438V482.125H228.188V484.125ZM229.438 483.125V489.875H231.438V483.125H229.438ZM230.438 490.875H231.562V488.875H230.438V490.875ZM230.562 489.875V491H232.562V489.875H230.562ZM231.562 490H229.312V492H231.562V490ZM230.312 491V489.875H228.312V491H230.312ZM229.312 488.875H228.188V490.875H229.312V488.875ZM229.188 489.875V483.125H227.188V489.875H229.188ZM231.562 486.375H232.688V484.375H231.562V486.375ZM231.688 485.375V489.875H233.688V485.375H231.688ZM232.688 488.875H231.562V490.875H232.688V488.875ZM232.562 489.875V485.375H230.562V489.875H232.562ZM233.812 484.125H236.062V482.125H233.812V484.125ZM235.062 483.125V489.875H237.062V483.125H235.062ZM236.062 488.875H234.938V490.875H236.062V488.875ZM233.938 489.875V491H235.938V489.875H233.938ZM234.938 490H232.688V492H234.938V490ZM233.688 491V489.875H231.688V491H233.688ZM232.688 490.875H233.812V488.875H232.688V490.875ZM234.812 489.875V483.125H232.812V489.875H234.812ZM239.438 483.125V482.125H238.438V483.125H239.438ZM241.688 483.125H242.688V482.125H241.688V483.125ZM241.688 491V492H242.688V491H241.688ZM239.438 491H238.438V492H239.438V491ZM239.438 480.875V479.875H238.438V480.875H239.438ZM241.688 480.875H242.688V479.875H241.688V480.875ZM241.688 482V483H242.688V482H241.688ZM239.438 482H238.438V483H239.438V482ZM239.438 484.125H241.688V482.125H239.438V484.125ZM240.688 483.125V491H242.688V483.125H240.688ZM241.688 490H239.438V492H241.688V490ZM240.438 491V483.125H238.438V491H240.438ZM239.438 481.875H241.688V479.875H239.438V481.875ZM240.688 480.875V482H242.688V480.875H240.688ZM241.688 481H239.438V483H241.688V481ZM240.438 482V480.875H238.438V482H240.438ZM245.062 483.125V482.125H244.062V483.125H245.062ZM250.688 483.125H251.688V482.125H250.688V483.125ZM250.688 484.25H249.688V485.25H250.688V484.25ZM251.812 484.25H252.812V483.25H251.812V484.25ZM251.812 491V492H252.812V491H251.812ZM249.562 491H248.562V492H249.562V491ZM249.562 484.25H250.562V483.25H249.562V484.25ZM247.312 484.25V483.25H246.312V484.25H247.312ZM247.312 491V492H248.312V491H247.312ZM245.062 491H244.062V492H245.062V491ZM245.062 484.125H250.688V482.125H245.062V484.125ZM249.688 483.125V484.25H251.688V483.125H249.688ZM250.688 485.25H251.812V483.25H250.688V485.25ZM250.812 484.25V491H252.812V484.25H250.812ZM251.812 490H249.562V492H251.812V490ZM250.562 491V484.25H248.562V491H250.562ZM249.562 483.25H247.312V485.25H249.562V483.25ZM246.312 484.25V491H248.312V484.25H246.312ZM247.312 490H245.062V492H247.312V490ZM246.062 491V483.125H244.062V491H246.062ZM258.562 484.25H259.562V483.25H258.562V484.25ZM256.312 484.25V483.25H255.312V484.25H256.312ZM256.312 488.75H255.312V489.75H256.312V488.75ZM258.562 488.75V489.75H259.562V488.75H258.562ZM255.188 483.125V482.125H254.188V483.125H255.188ZM260.812 483.125H261.812V482.125H260.812V483.125ZM260.812 492.125V493.125H261.812V492.125H260.812ZM259.688 492.125V491.125H258.688V492.125H259.688ZM259.688 493.25V494.25H260.688V493.25H259.688ZM255.188 493.25H254.188V494.25H255.188V493.25ZM255.188 492.125H256.188V491.125H255.188V492.125ZM254.062 492.125H253.062V493.125H254.062V492.125ZM254.062 491V490H253.062V491H254.062ZM256.312 491H257.312V490H256.312V491ZM256.312 492.125H255.312V493.125H256.312V492.125ZM258.562 492.125V493.125H259.562V492.125H258.562ZM258.562 489.875H259.562V488.875H258.562V489.875ZM255.188 489.875H254.188V490.875H255.188V489.875ZM255.188 488.75H256.188V487.75H255.188V488.75ZM254.062 488.75H253.062V489.75H254.062V488.75ZM254.062 484.25V483.25H253.062V484.25H254.062ZM255.188 484.25V485.25H256.188V484.25H255.188ZM258.562 483.25H256.312V485.25H258.562V483.25ZM255.312 484.25V488.75H257.312V484.25H255.312ZM256.312 489.75H258.562V487.75H256.312V489.75ZM259.562 488.75V484.25H257.562V488.75H259.562ZM255.188 484.125H260.812V482.125H255.188V484.125ZM259.812 483.125V492.125H261.812V483.125H259.812ZM260.812 491.125H259.688V493.125H260.812V491.125ZM258.688 492.125V493.25H260.688V492.125H258.688ZM259.688 492.25H255.188V494.25H259.688V492.25ZM256.188 493.25V492.125H254.188V493.25H256.188ZM255.188 491.125H254.062V493.125H255.188V491.125ZM255.062 492.125V491H253.062V492.125H255.062ZM254.062 492H256.312V490H254.062V492ZM255.312 491V492.125H257.312V491H255.312ZM256.312 493.125H258.562V491.125H256.312V493.125ZM259.562 492.125V489.875H257.562V492.125H259.562ZM258.562 488.875H255.188V490.875H258.562V488.875ZM256.188 489.875V488.75H254.188V489.875H256.188ZM255.188 487.75H254.062V489.75H255.188V487.75ZM255.062 488.75V484.25H253.062V488.75H255.062ZM254.062 485.25H255.188V483.25H254.062V485.25ZM256.188 484.25V483.125H254.188V484.25H256.188ZM264.188 483.125V482.125H263.188V483.125H264.188ZM268.688 483.125H269.688V482.125H268.688V483.125ZM268.688 484.25H267.688V485.25H268.688V484.25ZM269.812 484.25H270.812V483.25H269.812V484.25ZM269.812 485.375V486.375H270.812V485.375H269.812ZM267.562 485.375H266.562V486.375H267.562V485.375ZM267.562 484.25H268.562V483.25H267.562V484.25ZM265.312 484.25V483.25H264.312V484.25H265.312ZM265.312 486.5H264.312V487.5H265.312V486.5ZM268.688 486.5H269.688V485.5H268.688V486.5ZM268.688 487.625H267.688V488.625H268.688V487.625ZM269.812 487.625H270.812V486.625H269.812V487.625ZM269.812 489.875V490.875H270.812V489.875H269.812ZM268.688 489.875V488.875H267.688V489.875H268.688ZM268.688 491V492H269.688V491H268.688ZM264.188 491H263.188V492H264.188V491ZM264.188 489.875H265.188V488.875H264.188V489.875ZM263.062 489.875H262.062V490.875H263.062V489.875ZM263.062 488.75V487.75H262.062V488.75H263.062ZM265.312 488.75H266.312V487.75H265.312V488.75ZM265.312 489.875H264.312V490.875H265.312V489.875ZM267.562 489.875V490.875H268.562V489.875H267.562ZM267.562 487.625H268.562V486.625H267.562V487.625ZM264.188 487.625H263.188V488.625H264.188V487.625ZM264.188 486.5H265.188V485.5H264.188V486.5ZM263.062 486.5H262.062V487.5H263.062V486.5ZM263.062 484.25V483.25H262.062V484.25H263.062ZM264.188 484.25V485.25H265.188V484.25H264.188ZM264.188 484.125H268.688V482.125H264.188V484.125ZM267.688 483.125V484.25H269.688V483.125H267.688ZM268.688 485.25H269.812V483.25H268.688V485.25ZM268.812 484.25V485.375H270.812V484.25H268.812ZM269.812 484.375H267.562V486.375H269.812V484.375ZM268.562 485.375V484.25H266.562V485.375H268.562ZM267.562 483.25H265.312V485.25H267.562V483.25ZM264.312 484.25V486.5H266.312V484.25H264.312ZM265.312 487.5H268.688V485.5H265.312V487.5ZM267.688 486.5V487.625H269.688V486.5H267.688ZM268.688 488.625H269.812V486.625H268.688V488.625ZM268.812 487.625V489.875H270.812V487.625H268.812ZM269.812 488.875H268.688V490.875H269.812V488.875ZM267.688 489.875V491H269.688V489.875H267.688ZM268.688 490H264.188V492H268.688V490ZM265.188 491V489.875H263.188V491H265.188ZM264.188 488.875H263.062V490.875H264.188V488.875ZM264.062 489.875V488.75H262.062V489.875H264.062ZM263.062 489.75H265.312V487.75H263.062V489.75ZM264.312 488.75V489.875H266.312V488.75H264.312ZM265.312 490.875H267.562V488.875H265.312V490.875ZM268.562 489.875V487.625H266.562V489.875H268.562ZM267.562 486.625H264.188V488.625H267.562V486.625ZM265.188 487.625V486.5H263.188V487.625H265.188ZM264.188 485.5H263.062V487.5H264.188V485.5ZM264.062 486.5V484.25H262.062V486.5H264.062ZM263.062 485.25H264.188V483.25H263.062V485.25ZM265.188 484.25V483.125H263.188V484.25H265.188Z" fill="white" mask="url(#path-13-outside-1_61_11732)"/>
</g>
<defs>
<filter id="filter0_d_61_11732" x="87.25" y="26.5" width="224" height="43.5" filterUnits="userSpaceOnUse" color-interpolation-filters="sRGB">
<feFlood flood-opacity="0" result="BackgroundImageFix"/>
<feColorMatrix in="SourceAlpha" type="matrix" values="0 0 0 0 0 0 0 0 0 0 0 0 0 0 0 0 0 0 127 0" result="hardAlpha"/>
<feOffset dx="2" dy="2"/>
<feComposite in2="hardAlpha" operator="out"/>
<feColorMatrix type="matrix" values="0 0 0 0 0.145098 0 0 0 0 0.156863 0 0 0 0 0.239216 0 0 0 0.7 0"/>
<feBlend mode="normal" in2="BackgroundImageFix" result="effect1_dropShadow_61_11732"/>
<feBlend mode="normal" in="SourceGraphic" in2="effect1_dropShadow_61_11732" result="shape"/>
</filter>
<clipPath id="clip0_61_11732">
<rect width="400" height="560" fill="white"/>
</clipPath>
<clipPath id="clip1_61_11732">
<rect width="1253" height="180.821" fill="white" transform="translate(-853 396)"/>
</clipPath>
</defs>
</svg>
